<svg width="511" height="152" viewBox="0 0 511 152" fill="none" xmlns="http://www.w3.org/2000/svg">
<path fill-rule="evenodd" clip-rule="evenodd" d="M74.7378 0.081384C97.8792 -1.10154 119.746 10.7147 134.227 28.7546C148.742 46.8366 153.996 70.3543 149.365 93.051C144.585 116.475 131.894 139.409 109.772 148.613C88.6481 157.402 65.528 147.596 45.708 136.18C28.0849 126.029 14.0995 110.684 9.57177 90.8975C5.04434 71.112 10.5915 50.9731 22.4341 34.4692C35.2195 16.6513 52.7961 1.20298 74.7378 0.081384Z" fill="#A4B7AD"/>
<path d="M33.4141 103.047C33.3359 102.891 33.1406 102.695 32.8281 102.461C32.2031 101.758 31.8516 101.25 31.7734 100.938C31.8516 100.625 32.2422 99.9219 32.9453 98.8281C36.2266 94.0625 40.0547 91.6406 44.4297 91.5625H44.8984C51.3828 85.7031 55.8359 80.7422 58.2578 76.6797C59.9766 73.5547 61.1094 70.3906 61.6562 67.1875C61.8906 65.8594 62.0078 64.6094 62.0078 63.4375C61.9297 60.625 61.1875 58.2031 59.7812 56.1719C58.6875 55.2344 57.7891 54.7266 57.0859 54.6484C56.3828 54.6484 55.25 55 53.6875 55.7031C50.6406 57.8906 48.4531 60.5859 47.125 63.7891C46.3438 65.8984 45.4844 67.3047 44.5469 68.0078C44.3906 68.0859 44.2734 68.125 44.1953 68.125C43.8047 67.9688 43.6094 67.3438 43.6094 66.25C43.6094 65.3906 43.7656 64.2969 44.0781 62.9688C45.1719 57.8906 47.7891 53.6719 51.9297 50.3125C53.9609 48.8281 56.0703 48.0859 58.2578 48.0859C63.0234 48.0859 66.3828 50.7812 68.3359 56.1719C69.1953 58.5156 69.625 60.9766 69.625 63.5547C69.5469 70.5078 67.5547 76.5234 63.6484 81.6016C60.8359 85.0391 56.1875 88.8281 49.7031 92.9688C51.1094 93.6719 53.7266 95.5469 57.5547 98.5938C58.3359 99.2188 59 99.7266 59.5469 100.117C60.9531 100.977 62.0469 101.406 62.8281 101.406C64.0781 101.406 65.4453 100.977 66.9297 100.117C67.1641 100.039 67.4375 99.9609 67.75 99.8828C68.2188 99.7266 68.5703 99.6094 68.8047 99.5312C69.1172 99.375 69.5078 99.1406 69.9766 98.8281C70.2891 98.5938 70.5234 98.4375 70.6797 98.3594L71.2656 98.5938C71.0312 101.328 70.7578 103.086 70.4453 103.867C70.2891 104.18 69.9766 104.57 69.5078 105.039C69.1953 105.43 69 105.703 68.9219 105.859C67.0469 107.422 65.7188 108.281 64.9375 108.438C64.2344 108.672 63.4141 108.789 62.4766 108.789C59.6641 108.711 56.5781 107.344 53.2188 104.688C52.75 104.297 52.0469 103.672 51.1094 102.812C47.6719 99.9219 44.8594 98.3984 42.6719 98.2422C42.0469 98.2422 41.3828 98.3203 40.6797 98.4766C40.2891 98.7109 39.6641 99.1016 38.8047 99.6484C37.1641 100.664 35.875 101.484 34.9375 102.109C34.2344 102.578 33.7266 102.891 33.4141 103.047ZM33.5312 100.352C33.4531 100.352 33.4141 100.312 33.4141 100.234L33.2969 100.117L33.1797 100.234L33.2969 100.352H33.5312ZM98.8047 78.9062C103.18 80.1562 105.406 81.9141 105.484 84.1797C105.484 84.4922 105.367 85.2734 105.133 86.5234L104.664 86.9922C104.195 87.0703 103.648 87.2266 103.023 87.4609C102.398 87.6953 101.969 87.8125 101.734 87.8125C101.188 87.8125 99.6641 87.3438 97.1641 86.4062C96.9297 86.3281 96.7344 86.25 96.5781 86.1719C94.7812 93.0469 93.4531 101.445 92.5938 111.367C92.4375 112.695 92.3203 113.789 92.2422 114.648C92.0859 116.445 91.3438 118.242 90.0156 120.039L89.4297 120.273C86.3828 119.258 84.7422 116.172 84.5078 111.016C84.5078 110.234 84.5078 109.297 84.5078 108.203C84.5078 101.094 85.6797 93.3594 88.0234 85C87.3203 85.0781 85.7578 85.6641 83.3359 86.7578C82.9453 86.9141 82.5938 87.0312 82.2812 87.1094L79.5859 85.8203C80.0547 82.7734 82.5547 80.5078 87.0859 79.0234C88.1016 78.7109 89.1172 78.4766 90.1328 78.3203C93.2578 69.4922 97.2031 62.6953 101.969 57.9297C96.6562 58.3984 92.5938 58.6328 89.7812 58.6328C84.0781 58.6328 79.9766 57.9688 77.4766 56.6406C75.6797 55.5469 74.7422 54.5312 74.6641 53.5938L79.3516 50.1953C79.5078 50.1172 79.625 50.0781 79.7031 50.0781C79.9375 50.1562 80.2109 50.3125 80.5234 50.5469C80.5234 50.5469 81.0312 50.8203 82.0469 51.3672C82.125 51.5234 82.2031 51.6016 82.2812 51.6016C84.9375 53.4766 89.2344 54.7266 95.1719 55.3516H95.2891H95.4062H95.5234C95.9141 55.3516 96.5781 55.3516 97.5156 55.3516C98.4531 55.4297 99.1562 55.4688 99.625 55.4688C101.578 55.4688 103.375 55.3516 105.016 55.1172C107.047 53.7109 108.727 52.9688 110.055 52.8906C110.836 52.9688 111.344 53.9062 111.578 55.7031C111.5 56.875 110.797 58.125 109.469 59.4531C105.406 64.0625 101.852 70.5469 98.8047 78.9062Z" fill="black"/>
<path d="M100.456 10.8201C99.6037 10.9263 98.4352 11.1112 97.891 11.222C97.3469 11.3327 96.0704 11.4782 95.0551 11.5391C94.0369 11.6278 92.6714 11.82 92.0106 11.9744C90.8887 12.2483 90.5284 12.2103 87.862 11.4524C85.5224 10.7851 83.6217 10.4724 78.4083 9.95006C71.0885 9.20541 69.71 9.25607 69.469 10.2115L69.2908 10.8372L72.061 10.8774C78.408 11.0149 85.4315 12.1767 91.2587 14.0529C93.346 14.7216 94.4849 15.8788 94.0689 16.8998C93.5463 18.1337 93.2028 20.5916 93.3584 22.0373C93.693 25.2393 95.6304 29.4513 98.4944 33.1165C100.342 35.5255 100.926 34.7744 101.193 29.5901C101.344 26.8316 101.015 24.1066 100.321 22.1837C99.996 21.2807 98.7611 18.9084 98.3863 18.4765C97.8162 17.7717 96.1959 16.3956 95.6402 16.0848C94.2575 15.3783 95.9962 15.8982 97.7027 16.7228C99.8876 17.7942 99.9649 17.8584 100.539 19.3203C101.879 22.8246 105.273 27.3025 105.921 26.4741C106.181 26.1372 105.336 24.0582 104.077 21.9077C103.415 20.7448 102.93 19.7688 103.019 19.7221C103.295 19.499 108.156 23.0948 108.554 23.8374C109.16 24.9944 109.724 26.8195 109.475 26.7931C109.087 26.7522 108.039 29.2478 107.904 30.5227C107.711 32.3519 108.227 34.9005 109.332 37.7075C109.887 39.0832 110.407 40.2591 110.509 40.354C110.584 40.4459 111.015 41.136 111.438 41.9093C112.841 44.5515 113.655 43.7407 114.484 38.8118C115.378 33.5255 114.18 29.4757 110.789 26.2873C109.895 25.4643 109.624 24.8472 110.123 24.8999C110.566 24.9467 114.685 28.9405 116.704 31.3115C117.829 32.6072 119.073 34.3639 119.49 35.1926L120.255 36.7027L119.864 40.6689C119.586 43.3019 119.545 44.7548 119.743 44.9999C120.14 45.4902 120.798 43.7661 121.027 41.6043C121.262 39.6394 121.507 39.9736 122.04 42.8883L122.349 44.7425L121.516 45.9997C120.414 47.6769 119.603 49.7773 119.413 51.5788C119.235 53.2694 119.446 55.7858 119.835 56.6116C120.479 57.9407 120.859 59.9145 120.847 61.6227C120.822 63.1894 120.907 63.4505 121.378 63.5003C122.015 63.5676 123.67 61.164 124.718 58.6684C125.584 56.5739 126.026 52.3889 125.596 50.3538C125.176 48.4879 124.351 46.2149 123.643 44.9631C123.36 44.4568 123.007 43.5509 122.877 42.9206C122.748 42.2904 122.455 41.0825 122.235 40.2466C122.015 39.4106 121.897 38.6695 121.989 38.5952C122.265 38.3721 125.831 45.4743 126.992 48.5395C127.583 50.1151 128.447 52.8126 128.881 54.5399L129.699 57.6808L129.124 58.8812C127.906 61.387 127.489 67.2 128.319 69.95C128.815 71.6277 130.058 74.9817 130.488 75.9519C131.749 78.6072 132.509 78.5753 133.479 75.7631C135.263 70.5428 135.607 67.02 134.771 62.7281C134.444 61.0403 134.14 60.4756 132.63 58.5788C131.099 56.6236 130.819 56.0896 130.25 53.7876C129.523 50.8524 127.609 45.8862 125.848 42.3934C125.2 41.092 124.578 39.8213 124.463 39.5849C124.257 39.1429 125.672 40.0769 126.582 41.0137C126.833 41.2924 127.646 42.0789 128.358 42.7705C129.531 43.8751 129.668 44.1699 129.736 45.3821C129.876 49.0961 132.634 52.9743 136.882 55.4685C138.914 56.6638 139.146 56.324 138.439 53.1948C137.811 50.3821 136.663 47.9909 135.095 46.116C134.045 44.9122 132.121 43.7563 130.874 43.6246C130.237 43.5573 128.681 42.104 129.061 41.948C129.181 41.8766 129.813 41.9993 130.494 42.1833C132.365 42.7732 134.671 42.9606 134.602 42.5608C134.485 42.0721 129.974 40.4749 128.12 40.2512C127.26 40.1605 126.471 39.9371 126.378 39.7591C126.312 39.584 125.418 38.761 124.383 37.9511C123.375 37.1441 121.936 35.647 121.201 34.6446C120.466 33.6423 118.96 31.7177 117.866 30.3972L115.88 27.9737L117.525 28.3155C118.813 28.5916 119.239 28.8047 119.519 29.3387C119.706 29.6947 120.168 30.36 120.543 30.7919C122.46 33.0681 127.189 34.4641 132.174 34.2336C134.906 34.1016 135.278 34.0288 135.322 33.6131C135.41 32.7816 132.197 30.0324 129.283 28.4356C127.637 27.5614 127.095 27.392 124.656 27.1345C122.383 26.8946 121.651 26.9294 120.573 27.3201C119.436 27.7326 118.932 27.7353 116.923 27.3832C114.668 26.977 114.563 26.9099 113.059 25.4901C110.773 23.259 106.962 20.3345 103.932 18.5014C102.432 17.5864 101.227 16.7866 101.239 16.6757C101.271 16.3709 103.126 16.3145 105.261 16.5398C107.034 16.727 107.167 16.7971 108.062 17.8725C109.751 19.9283 110.703 20.7295 112.595 21.6578C114.564 22.6503 115.719 22.8563 119.355 22.9318C121.171 22.9834 121.996 23.1266 122.906 23.5309C125.335 24.684 125.557 23.6426 123.407 21.1737C120.261 17.5347 116.323 15.5496 112.047 15.4346C110.733 15.4079 109.099 15.4877 108.383 15.6363C107.666 15.7849 106.401 15.8195 105.598 15.7347C104.766 15.6469 102.922 15.5924 101.464 15.6065C99.2172 15.6497 98.6104 15.5576 97.6784 15.0949C97.0643 14.8059 95.6451 14.1796 94.5439 13.7271C92.8257 13.0133 92.6157 12.879 93.1161 12.6516C93.8777 12.3396 96.4552 12.6117 97.8248 13.1767C100.299 14.1664 104.065 14.0596 106.512 12.9166C107.571 12.4399 107.635 12.3626 107.166 12.0328C106.616 11.6665 103.382 10.7086 102.545 10.6763C102.265 10.6747 101.305 10.7416 100.456 10.8201ZM115.584 17.2372C116.841 17.5381 118.993 18.6619 120.254 19.7199C121.361 20.6494 121.028 20.6143 119.001 19.6437C116.788 18.5694 114.148 17.5621 112.62 17.1765C111.911 16.9896 111.405 16.74 111.502 16.6102C111.667 16.3754 112.632 16.5332 115.584 17.2372ZM112.199 17.9729C115.082 18.8096 116.966 19.541 119.303 20.7685L121.028 21.6792L119.896 21.7839C115.632 22.0905 111.83 20.6802 109.651 17.9561C108.932 17.0675 109.043 17.0792 112.199 17.9729ZM96.6464 22.2162C97.6856 25.3805 98.9691 31.0088 98.7239 31.2071C98.6291 31.3092 98.4687 31.2362 98.3753 31.0582C98.2791 30.9079 97.7571 30.0121 97.2104 29.0856C95.8063 26.7235 95.1853 25.1727 94.7265 22.8823C94.3434 20.9362 94.3585 19.2003 94.7818 18.3762C95.0649 17.8176 95.479 18.674 96.6464 22.2162ZM97.502 19.42C98.7109 20.9769 99.5534 23.0835 99.8708 25.387C100.153 27.4906 100.108 31.101 99.8167 30.6779C99.6957 30.497 99.19 28.65 98.6859 26.523C98.1818 24.396 97.3789 21.649 96.9256 20.368C96.4693 19.1148 96.1837 18.1038 96.2946 18.1155C96.4054 18.1273 96.9319 18.7153 97.502 19.42ZM127.143 28.7983C128.814 29.4231 131.136 30.7892 131.104 31.094C131.089 31.2326 131.302 31.3392 131.552 31.3655C131.801 31.3918 131.934 31.4619 131.839 31.564C131.747 31.6383 130.659 31.3273 129.416 30.8878C128.171 30.4761 126.709 29.9855 126.194 29.8191C122.664 28.7459 121.483 28.2569 122.033 28.0907C122.985 27.827 125.554 28.1822 127.143 28.7983ZM125.234 30.4184C127.432 31.0988 129.597 31.8317 130.026 32.0171C130.482 32.2054 131.207 32.5061 131.639 32.6638C132.394 32.9397 132.364 32.9645 131.041 33.021C129.13 33.0715 124.625 32.2037 123.409 31.5148C122.19 30.8536 120.878 29.7344 120.916 29.3741C120.952 29.0415 120.65 28.9816 125.234 30.4184ZM111.065 32.1735C111.838 35.7301 112.377 40.1868 112.098 40.4376C112.006 40.512 111.712 40.1166 111.459 39.5855C111.21 39.0267 110.908 38.4344 110.812 38.2841C110.691 38.1032 110.289 37.1359 109.923 36.0884C109.16 34.0182 108.877 32.1947 109.016 30.612C109.153 29.3094 109.765 28.0288 110.087 28.4271C110.211 28.5803 110.648 30.2799 111.065 32.1735ZM112.103 29.5086C112.444 29.993 112.89 31.077 113.107 31.9407C113.651 33.9597 113.738 38.1726 113.257 39.0186C112.949 39.5466 112.883 39.3715 112.784 37.6516C112.657 35.6764 112.234 33.3058 111.529 30.4289C111.337 29.5959 111.163 28.849 111.169 28.7936C111.204 28.461 111.594 28.7543 112.103 29.5086ZM133.751 46.3665C134.745 47.312 135.942 48.9797 135.901 49.3677C135.886 49.5063 136.092 49.9484 136.356 50.3686C136.859 51.1783 136.931 51.5503 136.571 51.5123C136.46 51.5006 136.218 51.1388 136.01 50.7244C135.801 50.3101 134.824 48.9459 133.836 47.6925C132.026 45.4557 131.994 44.6957 133.751 46.3665ZM133.363 48.4553C135.433 51.14 136.791 53.4131 136.487 53.6333C136.181 53.8812 133.32 51.2532 132.451 49.9284C131.299 48.0973 130.585 45.836 131.167 45.8975C131.333 45.915 132.306 47.0546 133.363 48.4553ZM122.698 49.4033C122.77 52.4375 122.332 58.977 122.054 58.9477C121.694 58.9097 120.694 55.6374 120.529 54.0225C120.45 53.1735 120.51 51.8067 120.681 50.984C121.054 49.3138 122.065 46.8984 122.426 46.9364C122.536 46.9481 122.644 48.0525 122.698 49.4033ZM124.25 49.5671C124.7 51.4082 124.448 55.9215 123.811 57.7039C123.532 58.4872 123.277 59.0487 123.227 58.9874C123.178 58.9261 123.269 57.0021 123.425 54.7206C123.582 52.4392 123.667 50.0381 123.627 49.3612C123.461 47.7464 123.84 47.8705 124.25 49.5671ZM131.196 61.8183C131.597 64.3829 131.799 68.5798 131.689 72.0151C131.63 74.1667 131.584 74.3301 131.246 73.818C130.141 72.0759 129.063 66.3573 129.35 63.6412C129.519 62.0337 130.287 59.5365 130.62 59.5716C130.731 59.5833 130.989 60.5914 131.196 61.8183ZM132.933 62.0857C133.261 62.9611 133.597 64.2857 133.688 65.0239C133.859 66.5833 133.397 70.9624 132.92 72.5654C132.611 73.6258 132.587 73.5952 132.592 71.6901C132.622 66.0885 132.45 63.2118 131.95 61.3094C131.516 59.5821 132.211 60.16 132.933 62.0857Z" fill="black"/>
<path d="M62.0437 10.4645C61.6044 11.1748 61.7618 11.808 62.5099 12.4194C63.2362 12.9725 64.418 12.3966 64.5204 11.4266C64.6754 9.95765 62.7632 9.22334 62.0437 10.4645Z" fill="black"/>
<path d="M56.8094 11.7336C56.4577 12.1449 56.3949 12.4745 56.5522 13.1077C56.7037 13.7962 56.8831 13.9553 57.6868 14.0401C59.0449 14.1835 59.8316 12.8373 58.9858 11.8232C58.4404 11.1491 57.3814 11.0934 56.8094 11.7336Z" fill="black"/>
<path d="M51.8782 13.8473C51.2988 14.8231 51.742 15.9348 52.7674 16.043C53.7375 16.1454 54.2554 15.7517 54.3608 14.754C54.5041 13.3959 52.5613 12.6864 51.8782 13.8473Z" fill="black"/>
<path d="M189.609 115.125C189.609 116.039 190.113 116.496 191.121 116.496C192.34 115.676 193.348 114.762 194.145 113.754C194.965 112.746 195.598 111.75 196.043 110.766C196.512 109.805 196.863 108.633 197.098 107.25C197.332 105.938 197.473 104.719 197.52 103.594C197.59 102.469 197.625 100.863 197.625 98.7773C197.625 97.6055 197.367 91.8281 196.852 81.4453C196.312 70.6172 196.043 62.5195 196.043 57.1523H197.66C198.457 57.1523 198.984 57.0938 199.242 56.9766C199.5 56.8359 199.629 56.5312 199.629 56.0625C199.629 55.7578 199.512 55.5 199.277 55.2891C199.066 55.0547 198.797 54.9375 198.469 54.9375C196.875 54.9375 195.598 54.9258 194.637 54.9023L191.895 54.8672C190.488 54.8672 189.586 54.9492 189.188 55.1133C188.766 55.2773 188.555 55.6406 188.555 56.2031C188.555 56.4844 188.648 56.7422 188.836 56.9766C189.023 57.1875 189.258 57.293 189.539 57.293L191.684 57.2227L193.863 57.1523C193.863 60.457 193.98 64.793 194.215 70.1602L194.25 71.0039C194.484 78.0117 194.602 81.457 194.602 81.3398C194.648 83.2383 194.789 86.4844 195.023 91.0781C195.258 95.4609 195.375 99.0117 195.375 101.73C195.375 106.957 194.32 110.625 192.211 112.734C192.047 112.898 191.754 113.109 191.332 113.367C190.793 113.719 190.371 114.035 190.066 114.316C189.785 114.598 189.633 114.867 189.609 115.125ZM219.246 110.871C220.324 110.871 221.273 110.578 222.094 109.992C222.914 109.453 223.594 108.75 224.133 107.883C224.695 106.992 225.188 105.891 225.609 104.578C225.984 103.359 226.277 102.164 226.488 100.992C226.723 99.7969 226.91 98.4258 227.051 96.8789C227.168 95.5664 227.238 94.3945 227.262 93.3633C227.285 92.3086 227.297 91.2773 227.297 90.2695L227.227 85.9805L227.156 81.6914L227.297 81.3398C227.297 78.293 227.039 75.375 226.523 72.5859C226.031 69.7969 225.281 67.5352 224.273 65.8008C223.383 64.1133 222.469 63.1875 221.531 63.0234C221.438 63 220.91 62.9062 219.949 62.7422C218.988 62.5781 218.004 62.3203 216.996 61.9688C216.574 61.8516 216.246 61.793 216.012 61.793C212.543 61.793 210.809 68.4844 210.809 81.8672V84.3633C210.809 102.035 213.621 110.871 219.246 110.871ZM213.129 87.1406L213.059 84.293C213.059 83.7305 213.117 82.6055 213.234 80.918C213.352 79.2305 213.41 78.1055 213.41 77.543C213.574 76.793 213.68 75.8906 213.727 74.8359C213.797 73.7578 213.832 72.7852 213.832 71.918C213.855 71.0508 213.867 70.5 213.867 70.2656C213.891 69.2344 213.996 68.2031 214.184 67.1719C214.582 65.0625 215.883 64.0078 218.086 64.0078C219.188 64.0078 220.195 64.3711 221.109 65.0977C222.047 65.8008 222.785 66.75 223.324 67.9453C223.863 69.1172 224.133 70.3945 224.133 71.7773L223.992 72.1289L224.273 72.6914C224.273 74.5898 224.414 77.4258 224.695 81.1992C224.953 85.1367 225.082 87.9727 225.082 89.707C225.082 91.8398 224.988 94.1367 224.801 96.5977C224.59 99.4336 224.039 102.164 223.148 104.789C222.727 106.055 222.152 107.039 221.426 107.742C220.699 108.445 219.879 108.797 218.965 108.797C218.004 108.797 217.16 108.223 216.434 107.074C215.754 105.996 215.215 104.719 214.816 103.242C214.418 101.742 214.078 99.9258 213.797 97.793C213.398 94.6992 213.199 92.0977 213.199 89.9883L213.129 87.1406ZM246.211 109.781C246.281 109.945 246.434 110.121 246.668 110.309C246.902 110.496 247.102 110.59 247.266 110.59C248.273 110.59 248.777 108.961 248.777 105.703V105.387C248.777 103.254 248.766 101.344 248.742 99.6562C248.719 97.9688 248.707 96.0703 248.707 93.9609C248.707 93.3047 248.613 92.2031 248.426 90.6562C248.238 89.1094 248.145 88.0195 248.145 87.3867C248.145 87.1055 248.215 86.7422 248.355 86.2969C248.496 85.875 248.566 85.5469 248.566 85.3125C248.566 85.0547 248.449 84.6445 248.215 84.082C248.215 82.043 248.496 79.8516 249.059 77.5078C249.316 76.3359 249.574 75.2695 249.832 74.3086C250.113 73.3477 250.441 72.2227 250.816 70.9336L251.027 70.1602C252.363 65.7305 253.031 63.1523 253.031 62.4258C253.031 62.2148 252.926 62.0391 252.715 61.8984C252.527 61.7578 252.316 61.6875 252.082 61.6875C251.52 61.6875 250.898 63.0234 250.219 65.6953C249.586 68.2734 248.977 71.1094 248.391 74.2031C247.781 77.2266 247.312 78.9375 246.984 79.3359L247.125 79.6875L246.844 80.9883C246.469 80.8711 245.836 79.3242 244.945 76.3477L244.418 74.6602C243.551 71.7773 242.801 69.3398 242.168 67.3477C241.23 64.3711 240.527 62.8477 240.059 62.7773L239.074 63.5508C239.121 64.1602 239.32 65.0625 239.672 66.2578C239.977 67.3594 240.434 68.7891 241.043 70.5469C241.676 72.3047 242.086 73.4414 242.273 73.957L243.047 76.1016C243.633 77.7422 244.219 79.3477 244.805 80.918C245.414 82.4883 245.848 83.6133 246.105 84.293L245.895 85.1719L246.352 86.0859L246.668 91.1836C246.832 93.6211 246.914 95.625 246.914 97.1953C246.914 104.391 246.68 108.586 246.211 109.781ZM304.324 109.5C303.973 109.5 303.656 109.383 303.375 109.148C303.094 108.914 302.953 108.621 302.953 108.27V98.8477C302.953 98.4727 302.344 98.1094 301.125 97.7578C299.93 97.3828 298.535 97.0898 296.941 96.8789C295.371 96.6445 294.141 96.5273 293.25 96.5273C293.109 96.5273 292.805 97.4297 292.336 99.2344C291.938 100.805 291.504 102.609 291.035 104.648C290.566 106.688 290.262 108.07 290.121 108.797C290.027 109.148 289.77 109.324 289.348 109.324C288.973 109.324 288.633 109.207 288.328 108.973C288.023 108.738 287.871 108.457 287.871 108.129C287.871 108.082 287.883 108.047 287.906 108.023V107.918L288.75 104.332L290.227 97.6875L291.281 92.9414C292.008 89.8242 292.922 85.0664 294.023 78.668C295.219 71.8008 296.086 67.1484 296.625 64.7109C297.023 62.9297 297.457 61.2305 297.926 59.6133C298.23 58.5117 298.582 57.5391 298.98 56.6953C299.355 55.8984 299.695 55.5 300 55.5C300.75 55.5 301.301 55.7344 301.652 56.2031C301.91 56.625 302.285 59.0273 302.777 63.4102C303.293 67.793 303.738 72.1406 304.113 76.4531L305.098 88.4062C305.098 90.4688 305.238 93.5977 305.52 97.793C305.777 102.176 305.906 105.305 305.906 107.18V107.496C305.906 108.129 305.836 108.598 305.695 108.902C305.531 109.301 305.074 109.5 304.324 109.5ZM301.477 95.5781C302.414 95.5781 302.883 95.3438 302.883 94.875C302.883 91.8984 302.719 87.832 302.391 82.6758C302.062 77.5195 301.711 72.9727 301.336 69.0352C301.148 66.9727 300.855 64.1836 300.457 60.668L300.316 59.8945C300.223 59.543 300.176 59.25 300.176 59.0156C299.801 60.0938 299.449 61.418 299.121 62.9883C298.816 64.5586 298.418 66.9141 297.926 70.0547C296.824 77.1094 295.84 82.4766 294.973 86.1562C294.879 86.6953 294.668 87.5156 294.34 88.6172C293.988 89.8359 293.719 90.8789 293.531 91.7461C293.367 92.5898 293.285 93.375 293.285 94.1016V94.5234C295.324 95.2031 297.75 95.543 300.562 95.543H300.984C301.125 95.5664 301.289 95.5781 301.477 95.5781ZM317.121 87.5977C317.121 90.4336 317.414 94.1953 318 98.8828C318.398 102.234 318.855 104.66 319.371 106.16C319.887 107.66 320.672 108.68 321.727 109.219C322.781 109.734 324.41 109.992 326.613 109.992C329.027 109.992 331.477 108.75 333.961 106.266C333.961 104.766 333.914 102.926 333.82 100.746C333.727 98.5664 333.68 96.7266 333.68 95.2266C333.68 94.6172 333.82 93.7148 334.102 92.5195C334.359 91.2773 334.488 90.3867 334.488 89.8477C334.488 89.5195 334.207 89.25 333.645 89.0391C333.129 88.8516 332.414 88.6992 331.5 88.582C330.07 88.4648 328.852 88.4062 327.844 88.4062C326.695 88.4062 326.121 88.8164 326.121 89.6367C326.121 90.1992 326.695 90.4805 327.844 90.4805C328.172 90.4805 328.441 90.4688 328.652 90.4453L329.215 90.4102C330.41 90.4102 331.254 90.6562 331.746 91.1484V95.1211C331.746 96.9258 331.688 98.7539 331.57 100.605C331.5 101.613 331.371 102.492 331.184 103.242C330.996 103.992 330.738 104.789 330.41 105.633C330.105 106.359 329.695 106.922 329.18 107.32C328.664 107.719 328.078 107.918 327.422 107.918C325.758 107.918 324.445 107.508 323.484 106.688C322.617 105.938 322.02 104.977 321.691 103.805C321.363 102.609 321.152 101.18 321.059 99.5156C320.918 97.5 320.789 95.9883 320.672 94.9805C320.555 93.9492 320.332 93.1758 320.004 92.6602C319.863 91.4883 319.793 89.7305 319.793 87.3867C319.793 85.6523 319.828 83.8008 319.898 81.832C319.945 80.4492 320.016 79.1953 320.109 78.0703C320.227 76.9219 320.391 75.5391 320.602 73.9219C320.789 72.5156 321.035 71.2617 321.34 70.1602C321.668 69.0586 322.078 67.957 322.57 66.8555C322.992 65.8711 323.52 65.1211 324.152 64.6055C324.809 64.0664 325.535 63.7969 326.332 63.7969L327.035 63.8672L327.703 63.9375C328.055 63.9375 328.383 63.832 328.688 63.6211C328.992 63.4102 329.145 63.1523 329.145 62.8477C329.145 62.168 328.406 61.8281 326.93 61.8281C326.648 61.8281 326.273 61.8516 325.805 61.8984C323.625 62.1328 321.996 62.9062 320.918 64.2188C319.84 65.5312 319.125 67.1016 318.773 68.9297C318.422 70.7578 318.141 73.2773 317.93 76.4883L317.859 77.4727L317.473 81.9727C317.238 84.293 317.121 86.168 317.121 87.5977ZM354.281 110.59C355.453 110.59 356.473 110.191 357.34 109.395C358.23 108.598 358.922 107.461 359.414 105.984C360.398 103.078 360.973 99.5508 361.137 95.4023C361.277 92.1914 361.383 88.2305 361.453 83.5195C361.5 81.1289 361.559 79.4883 361.629 78.5977C361.629 78.3164 361.617 78.0703 361.594 77.8594C361.57 77.6484 361.559 77.4141 361.559 77.1562C361.559 76.7109 361.617 75.7617 361.734 74.3086C361.852 72.8555 361.91 71.8945 361.91 71.4258C361.91 71.2617 361.887 71.1094 361.84 70.9688C362.145 69.8203 362.297 67.3711 362.297 63.6211C362.297 62.3086 362.238 61.4766 362.121 61.125C361.98 60.8203 361.629 60.668 361.066 60.668C360.246 60.668 359.836 60.9375 359.836 61.4766L359.906 62.1094L359.977 62.7773C359.977 70.5586 359.812 80.3203 359.484 92.0625L359.379 93.5391C358.77 103.594 357.363 108.621 355.16 108.621C351.551 108.621 349.746 105.891 349.746 100.43C349.746 98.9062 349.617 96.3633 349.359 92.8008C349.102 89.2383 348.973 86.6953 348.973 85.1719L348.762 66.082C348.762 63.5742 348.211 62.25 347.109 62.1094L346.652 63.1289C346.816 64.3945 346.934 66.7148 347.004 70.0898C347.098 73.4648 347.191 78.3633 347.285 84.7852L347.32 87.1055C347.391 92.2148 347.625 96.7734 348.023 100.781C348.422 104.789 348.949 107.215 349.605 108.059C350.168 108.738 350.895 109.324 351.785 109.816C352.676 110.309 353.508 110.566 354.281 110.59ZM374.918 108.621C374.988 109.066 375.246 109.441 375.691 109.746C376.16 110.074 376.676 110.285 377.238 110.379L377.59 110.203C378.762 110.203 379.816 109.922 380.754 109.359C381.645 108.844 382.371 108.176 382.934 107.355C383.52 106.512 384.023 105.492 384.445 104.297C385.102 102.398 385.43 100.242 385.43 97.8281C385.43 96.3516 385.348 95.0391 385.184 93.8906C384.996 92.625 384.785 91.5586 384.551 90.6914C384.316 89.8242 383.965 88.875 383.496 87.8438C383.051 86.8828 382.605 86.0039 382.16 85.207C381.715 84.4102 381.164 83.4609 380.508 82.3594L379.945 81.4102L378.68 79.1953L378.152 77.8945L377.801 76.6289C377.543 75.8789 377.402 75.3984 377.379 75.1875L377.133 73.9922C376.898 73.0547 376.781 72.1172 376.781 71.1797C376.781 69.7031 377.074 68.0859 377.66 66.3281C377.965 65.3906 378.398 64.6406 378.961 64.0781C379.523 63.4922 380.168 63.1992 380.895 63.1992C381.105 63.1992 381.363 63.2695 381.668 63.4102C381.996 63.5508 382.242 63.6211 382.406 63.6211C383.039 63.6211 383.355 63.4336 383.355 63.0586C383.355 62.5664 383.039 62.1094 382.406 61.6875C381.797 61.2656 381.199 61.0547 380.613 61.0547C379.676 61.0547 378.82 61.4062 378.047 62.1094C377.273 62.7891 376.664 63.6914 376.219 64.8164C375.797 65.8711 375.469 66.9375 375.234 68.0156C375.023 69.0703 374.918 70.0312 374.918 70.8984C374.918 72.8203 375.223 74.7305 375.832 76.6289C376.254 78.0117 376.746 79.2656 377.309 80.3906C377.871 81.5156 378.656 82.9922 379.664 84.8203L380.508 86.332C381.422 87.9961 382.16 89.7422 382.723 91.5703C383.285 93.3984 383.566 95.2031 383.566 96.9844C383.566 99.2812 383.215 101.625 382.512 104.016C382.113 105.375 381.504 106.477 380.684 107.32C379.887 108.141 378.949 108.551 377.871 108.551C377.543 108.551 377.098 108.469 376.535 108.305C376.066 108.188 375.645 108.105 375.27 108.059L374.918 108.621ZM382.898 63.3398C382.945 63.3398 382.969 63.3633 382.969 63.4102H382.898V63.3398ZM404.73 109.078C405.105 109.078 405.504 108.938 405.926 108.656C406.348 108.352 406.559 108.035 406.559 107.707C406.559 102.996 406.277 95.9531 405.715 86.5781C405.152 77.1797 404.871 70.1367 404.871 65.4492C404.871 64.7695 404.895 64.3125 404.941 64.0781C404.988 63.9375 405.082 63.8672 405.223 63.8672C405.855 63.8672 406.887 63.9141 408.316 64.0078C409.746 64.1016 410.766 64.1484 411.375 64.1484C411.82 64.1484 412.195 64.0664 412.5 63.9023C412.805 63.7383 412.957 63.5039 412.957 63.1992C412.957 62.5898 412.523 62.2852 411.656 62.2852L410.145 62.3203L408.598 62.3555C407.332 62.3555 405.246 62.2383 402.34 62.0039C399.27 61.793 397.184 61.6875 396.082 61.6875C395.379 61.6875 394.922 61.957 394.711 62.4961C394.711 63.0586 395.203 63.4336 396.188 63.6211C397.102 63.7852 399.094 63.8672 402.164 63.8672C402.188 67.0781 402.445 72.8203 402.938 81.0938C403.406 89.1328 403.641 95.0977 403.641 98.9883C403.828 99.5039 403.922 100.078 403.922 100.711L403.852 101.977L403.781 103.242L403.852 105.844L403.922 108.48L404.73 109.078ZM426.984 108.797C427.172 109.266 427.828 109.5 428.953 109.5C429.258 109.5 429.668 109.359 430.184 109.078C430.746 108.82 431.191 108.691 431.52 108.691C431.801 108.691 432.199 108.727 432.715 108.797C433.184 108.891 433.582 108.938 433.91 108.938C434.355 108.938 434.73 108.809 435.035 108.551C435.34 108.27 435.492 107.918 435.492 107.496C435.492 106.816 434.777 106.477 433.348 106.477C432.949 106.477 432.598 106.488 432.293 106.512C431.988 106.535 431.637 106.547 431.238 106.547C430.184 106.547 429.656 106.312 429.656 105.844L429.727 105.668C429.586 105.457 429.516 104.789 429.516 103.664C429.516 103.148 429.527 102.715 429.551 102.363L429.586 101.449C429.586 99.457 429.504 96.8203 429.34 93.5391C429.176 90.2812 429.094 87.6562 429.094 85.6641C429.094 83.7656 429.129 80.9062 429.199 77.0859C429.27 73.2891 429.305 70.4414 429.305 68.543C429.305 66.4102 429.234 65.1328 429.094 64.7109L429.445 64.5C430.453 64.5 431.145 64.6406 431.52 64.9219L433.172 64.7812C433.289 64.5 433.348 64.3125 433.348 64.2188C433.348 63.7031 432.926 63.293 432.082 62.9883C431.121 62.6367 430.02 62.4141 428.777 62.3203C426.715 62.1328 424.898 62.0391 423.328 62.0391C423.023 62.0391 422.66 62.1445 422.238 62.3555C421.816 62.543 421.605 62.7305 421.605 62.918C421.605 63.7383 422.062 64.1484 422.977 64.1484L423.855 64.0781L424.699 64.0078C425.684 64.0078 426.398 64.0781 426.844 64.2188C427.078 66.3984 427.195 69.1758 427.195 72.5508C427.195 73.9805 427.137 76.7695 427.02 80.918C426.902 85.0898 426.844 87.9023 426.844 89.3555C426.844 90.9023 426.938 93.5273 427.125 97.2305C427.289 100.488 427.371 103.113 427.371 105.105C427.371 105.27 427.336 105.551 427.266 105.949C427.172 106.301 427.125 106.523 427.125 106.617L426.844 106.898H424.77L424.348 107.285C424.137 107.426 423.996 107.555 423.926 107.672C423.855 107.789 423.82 107.941 423.82 108.129C424.102 108.621 424.758 108.867 425.789 108.867C426 108.867 426.199 108.855 426.387 108.832C426.551 108.809 426.75 108.797 426.984 108.797ZM450.258 98.4258C450.703 98.4258 451.535 98.4844 452.754 98.6016C453.973 98.7188 454.852 98.7773 455.391 98.7773C456.891 98.7773 458.074 98.8945 458.941 99.1289L460.137 108.551C460.207 109.066 460.289 109.43 460.383 109.641C460.477 109.852 460.629 109.98 460.84 110.027C461.051 110.098 461.414 110.133 461.93 110.133C462.305 109.922 462.492 109.57 462.492 109.078V108.867C460.406 92.3906 459.07 80.7656 458.484 73.9922L458.062 70.1953C457.875 68.5547 457.734 67.1719 457.641 66.0469C457.57 64.8984 457.535 63.6445 457.535 62.2852C457.535 61.9805 457.395 61.7227 457.113 61.5117C456.855 61.3008 456.562 61.1953 456.234 61.1953C455.953 61.4766 455.52 61.6172 454.934 61.6172C454.746 61.6172 454.582 61.6055 454.441 61.582L453.949 61.5469C453.832 61.7578 453.68 62.4727 453.492 63.6914C453.375 64.3477 453.258 65.3203 453.141 66.6094L453 67.7695L452.719 70.4062C452.484 71.9297 452.062 74.1562 451.453 77.0859C450.82 79.9453 450.398 82.043 450.188 83.3789L449.414 88.125L448.992 90.6562C448.828 91.7344 448.664 92.707 448.5 93.5742L447.691 98.0391C447.035 101.742 446.309 105.129 445.512 108.199L445.441 108.41L445.371 108.621C445.371 108.902 445.535 109.184 445.863 109.465C446.191 109.723 446.508 109.852 446.812 109.852C447.188 109.852 447.551 109.441 447.902 108.621C448.207 107.824 448.488 106.816 448.746 105.598C449.168 103.371 449.438 101.648 449.555 100.43L449.695 98.9883C449.719 98.9648 449.73 98.9297 449.73 98.8828C449.73 98.8359 449.742 98.7891 449.766 98.7422C449.789 98.625 449.836 98.543 449.906 98.4961C449.977 98.4492 450.094 98.4258 450.258 98.4258ZM450.328 96.2812C450.328 94.7578 450.879 91.2656 451.98 85.8047C452.098 85.3359 453.398 78.9258 455.883 66.5742C457.359 81.9492 458.273 92.1562 458.625 97.1953H457.887C456.551 97.1953 454.957 97.1016 453.105 96.9141C451.254 96.7266 450.328 96.5156 450.328 96.2812ZM486.188 94.8047C486.422 95.5312 486.867 96.7852 487.523 98.5664C488.789 101.965 489.586 104.719 489.914 106.828L489.844 107.039C489.961 107.227 490.066 107.566 490.16 108.059C490.277 108.621 490.43 109.055 490.617 109.359C490.805 109.641 491.074 109.781 491.426 109.781C491.52 109.781 491.777 109.723 492.199 109.605L492.234 109.641V109.605C492.797 109.441 493.207 109.336 493.465 109.289C493.77 108.68 494.098 105.75 494.449 100.5C494.801 95.25 495.105 89.4844 495.363 83.2031C495.621 76.9219 495.75 72.4688 495.75 69.8438L496.137 69.2461V64.4297C496.137 63.9141 495.984 63.4453 495.68 63.0234C495.375 62.5781 495 62.3555 494.555 62.3555C493.875 62.3555 493.535 62.8594 493.535 63.8672L493.605 64.7812L493.676 65.6602C493.676 81.2227 493.125 94.3008 492.023 104.895L491.883 105.105C491.203 103.934 490.605 102.598 490.09 101.098C489.598 99.5742 489.117 97.7578 488.648 95.6484C488.18 93.7031 487.793 92.2266 487.488 91.2188C486.621 88.5469 484.91 84.2461 482.355 78.3164C479.73 72.2227 478.008 67.4531 477.188 64.0078L477.117 63.6211L477.012 63.1992C476.918 62.9414 476.812 62.7305 476.695 62.5664C476.484 62.3555 476.262 62.2031 476.027 62.1094L475.324 62.2852L475.113 62.0391C474.246 62.7656 473.812 64.3125 473.812 66.6797V67.5938C473.812 68.9766 473.742 71.0977 473.602 73.957C473.438 76.6055 473.355 78.7383 473.355 80.3555C473.355 82.9805 473.438 86.4258 473.602 90.6914C473.742 95.2852 473.812 98.7422 473.812 101.062C473.812 101.719 473.766 102.504 473.672 103.418C473.578 104.355 473.531 105.141 473.531 105.773C473.531 108.352 474.035 109.641 475.043 109.641C475.441 109.641 475.758 109.5 475.992 109.219C476.25 108.914 476.379 108.574 476.379 108.199C476.379 107.52 476.285 107.016 476.098 106.688V100.219C475.77 99.3516 475.605 94.9336 475.605 86.9648H475.816L475.676 84.6445C475.582 83.6133 475.535 82.7109 475.535 81.9375L475.605 80.2148L475.676 78.457L475.605 75.6445L475.535 72.7969C475.535 70.8516 475.723 69.1641 476.098 67.7344C477.223 68.8125 479.941 76.043 484.254 89.4258C485.379 92.8242 486.023 94.6172 486.188 94.8047Z" fill="black"/>
</svg>
