<svg width="627" height="160" viewBox="0 0 627 160" fill="none" xmlns="http://www.w3.org/2000/svg">
<path d="M160 80C160 124.183 124.183 160 80 160C35.8172 160 0 124.183 0 80C0 35.8172 35.8172 0 80 0C124.183 0 160 35.8172 160 80Z" fill="#3178C6"/>
<mask id="path-2-outside-1_178_150" maskUnits="userSpaceOnUse" x="24" y="23.04" width="113" height="114" fill="black">
<rect fill="white" x="24" y="23.04" width="113" height="114"/>
<path d="M73.0987 37.5856V44.1311L78.8291 49.8272L84.5428 55.5233L88.6026 55.49C91.5096 55.4567 92.6456 55.49 92.6456 55.6232C92.6456 55.7232 91.5096 59.1042 90.1396 63.1181C86.1467 74.7269 86.1801 74.6269 86.0465 74.2605C84.6431 70.1467 83.8245 69.0474 77.5093 62.7684C74.6524 59.937 72.2132 57.5219 72.0796 57.422C71.9459 57.3221 71.3278 56.6892 70.6762 56.0063C67.669 52.8085 65.0961 51.4594 59.6497 50.2436C58.5805 50.0104 57.5447 49.9438 54.3871 49.9438C50.8787 49.9438 50.2772 49.9938 48.7235 50.3269C43.6446 51.4594 39.5181 54.1076 36.1934 58.3547C34.7399 60.1868 33.3365 63.5512 32.6683 66.7656C32.3508 68.2813 32 71.046 32 72.0287C32 72.5117 32.6014 73.1446 37.6636 78.1912L43.3105 83.8373L45.2986 83.854C46.4013 83.8706 48.1053 83.9206 49.1077 83.9872L50.9288 84.0871L48.2056 87.3349C45.2986 90.7992 44.0957 92.2149 43.2604 93.1643C40.3367 96.462 36.6779 100.559 34.7232 102.708L32.3341 105.339V111.302V117.264L38.0312 122.961L43.7115 128.64H65.0794H86.4307L86.531 128.09C86.5811 127.807 86.6312 124.976 86.6479 121.811L86.6646 116.065L81.0511 110.486C77.9437 107.421 75.3708 104.89 75.304 104.873C75.2372 104.856 74.7527 104.806 74.218 104.74L73.2658 104.64L74.3016 103.374C74.8863 102.691 75.9388 101.359 76.6572 100.426C77.3756 99.5099 78.0105 98.7271 78.0773 98.6938C78.1441 98.6772 80.717 101.175 83.791 104.24L89.3878 109.82H97.123H104.858L105.092 109.27C105.309 108.737 106.88 104.24 107.932 101.076C108.233 100.159 108.918 98.1775 109.436 96.6619C109.971 95.1463 110.756 92.8645 111.19 91.582C111.641 90.2996 112.911 86.5854 114.03 83.3377C115.15 80.0899 116.319 76.6755 116.62 75.7595C118.274 70.9128 120.195 65.3499 122.885 57.522C123.904 54.5407 125.274 50.5767 125.909 48.6946C126.56 46.8126 127.262 44.7473 127.496 44.1144C127.73 43.4649 127.947 42.7987 127.997 42.6155C128.064 42.3323 126.961 41.1498 122.451 36.6529L116.82 31.04H94.9679H73.0987V37.5856ZM113.529 34.8541C113.529 34.9374 113.446 35.2205 113.345 35.487C113.095 36.1032 112.009 39.2511 109.269 47.2789C108.016 50.9431 106.078 56.5559 104.975 59.7704C103.873 62.9682 101.935 68.631 100.665 72.3452C99.3952 76.0593 97.5073 81.5222 96.4882 84.5035C95.4524 87.4848 94.1158 91.4155 93.4977 93.2475L92.3616 96.5786L87.8007 96.6286C83.5237 96.6619 83.2564 96.6452 83.3399 96.3787C83.3901 96.2122 84.2922 93.564 85.3448 90.4994C86.3973 87.4349 88.7697 80.5396 90.6074 75.1766C92.4451 69.8136 95.586 60.7198 97.5574 54.957C99.5455 49.1943 101.166 44.3976 101.166 44.2977C101.149 44.1977 100.665 43.7147 100.063 43.2317L98.9608 42.3656H88.0346H77.1083V38.5349V34.7042H95.3187C106.496 34.7042 113.529 34.7708 113.529 34.8541ZM60.9194 53.8411C63.8097 54.474 65.2599 55.3201 67.7024 56.5859C68.4308 57.2605 69.1709 57.5036 70.1416 58.5379C73.3994 62.9682 74.4185 68.5478 72.8982 73.4944C71.2609 78.8407 62.7739 90.083 49.5087 104.473C48.6901 105.356 48.0385 106.155 48.0385 106.255C48.0385 106.372 48.4228 106.922 48.8906 107.471L49.7426 108.487H61.5877H73.4328V111.901V115.316H56.1747C46.6686 115.316 38.3319 115.366 37.6302 115.416L36.3438 115.532V111.602V107.654L38.783 104.956C51.5135 90.8492 61.5376 78.2078 62.9076 74.577C63.3586 73.3611 63.3753 70.8961 62.9243 69.164C62.6068 67.9315 61.9887 66.3493 61.7715 66.1827C61.7047 66.1327 61.2369 65.5165 60.7357 64.817C60.0841 63.9009 59.5662 63.3846 58.9146 63.0015C56.2583 61.386 53.2176 61.286 50.3273 62.7351C47.7378 64.0175 46.1339 66.1494 45.332 69.3805L44.9812 70.8462H43.4441C42.6088 70.8462 40.5539 70.7962 38.8999 70.7296L35.8927 70.6297L36.0932 69.3639C36.7113 65.5331 38.098 62.402 40.4202 59.5372C42.9429 56.406 46.5683 54.4407 51.3799 53.5913C53.3179 53.2582 58.8645 53.3914 60.9194 53.8411Z"/>
</mask>
<path d="M73.0987 37.5856V44.1311L78.8291 49.8272L84.5428 55.5233L88.6026 55.49C91.5096 55.4567 92.6456 55.49 92.6456 55.6232C92.6456 55.7232 91.5096 59.1042 90.1396 63.1181C86.1467 74.7269 86.1801 74.6269 86.0465 74.2605C84.6431 70.1467 83.8245 69.0474 77.5093 62.7684C74.6524 59.937 72.2132 57.5219 72.0796 57.422C71.9459 57.3221 71.3278 56.6892 70.6762 56.0063C67.669 52.8085 65.0961 51.4594 59.6497 50.2436C58.5805 50.0104 57.5447 49.9438 54.3871 49.9438C50.8787 49.9438 50.2772 49.9938 48.7235 50.3269C43.6446 51.4594 39.5181 54.1076 36.1934 58.3547C34.7399 60.1868 33.3365 63.5512 32.6683 66.7656C32.3508 68.2813 32 71.046 32 72.0287C32 72.5117 32.6014 73.1446 37.6636 78.1912L43.3105 83.8373L45.2986 83.854C46.4013 83.8706 48.1053 83.9206 49.1077 83.9872L50.9288 84.0871L48.2056 87.3349C45.2986 90.7992 44.0957 92.2149 43.2604 93.1643C40.3367 96.462 36.6779 100.559 34.7232 102.708L32.3341 105.339V111.302V117.264L38.0312 122.961L43.7115 128.64H65.0794H86.4307L86.531 128.09C86.5811 127.807 86.6312 124.976 86.6479 121.811L86.6646 116.065L81.0511 110.486C77.9437 107.421 75.3708 104.89 75.304 104.873C75.2372 104.856 74.7527 104.806 74.218 104.74L73.2658 104.64L74.3016 103.374C74.8863 102.691 75.9388 101.359 76.6572 100.426C77.3756 99.5099 78.0105 98.7271 78.0773 98.6938C78.1441 98.6772 80.717 101.175 83.791 104.24L89.3878 109.82H97.123H104.858L105.092 109.27C105.309 108.737 106.88 104.24 107.932 101.076C108.233 100.159 108.918 98.1775 109.436 96.6619C109.971 95.1463 110.756 92.8645 111.19 91.582C111.641 90.2996 112.911 86.5854 114.03 83.3377C115.15 80.0899 116.319 76.6755 116.62 75.7595C118.274 70.9128 120.195 65.3499 122.885 57.522C123.904 54.5407 125.274 50.5767 125.909 48.6946C126.56 46.8126 127.262 44.7473 127.496 44.1144C127.73 43.4649 127.947 42.7987 127.997 42.6155C128.064 42.3323 126.961 41.1498 122.451 36.6529L116.82 31.04H94.9679H73.0987V37.5856ZM113.529 34.8541C113.529 34.9374 113.446 35.2205 113.345 35.487C113.095 36.1032 112.009 39.2511 109.269 47.2789C108.016 50.9431 106.078 56.5559 104.975 59.7704C103.873 62.9682 101.935 68.631 100.665 72.3452C99.3952 76.0593 97.5073 81.5222 96.4882 84.5035C95.4524 87.4848 94.1158 91.4155 93.4977 93.2475L92.3616 96.5786L87.8007 96.6286C83.5237 96.6619 83.2564 96.6452 83.3399 96.3787C83.3901 96.2122 84.2922 93.564 85.3448 90.4994C86.3973 87.4349 88.7697 80.5396 90.6074 75.1766C92.4451 69.8136 95.586 60.7198 97.5574 54.957C99.5455 49.1943 101.166 44.3976 101.166 44.2977C101.149 44.1977 100.665 43.7147 100.063 43.2317L98.9608 42.3656H88.0346H77.1083V38.5349V34.7042H95.3187C106.496 34.7042 113.529 34.7708 113.529 34.8541ZM60.9194 53.8411C63.8097 54.474 65.2599 55.3201 67.7024 56.5859C68.4308 57.2605 69.1709 57.5036 70.1416 58.5379C73.3994 62.9682 74.4185 68.5478 72.8982 73.4944C71.2609 78.8407 62.7739 90.083 49.5087 104.473C48.6901 105.356 48.0385 106.155 48.0385 106.255C48.0385 106.372 48.4228 106.922 48.8906 107.471L49.7426 108.487H61.5877H73.4328V111.901V115.316H56.1747C46.6686 115.316 38.3319 115.366 37.6302 115.416L36.3438 115.532V111.602V107.654L38.783 104.956C51.5135 90.8492 61.5376 78.2078 62.9076 74.577C63.3586 73.3611 63.3753 70.8961 62.9243 69.164C62.6068 67.9315 61.9887 66.3493 61.7715 66.1827C61.7047 66.1327 61.2369 65.5165 60.7357 64.817C60.0841 63.9009 59.5662 63.3846 58.9146 63.0015C56.2583 61.386 53.2176 61.286 50.3273 62.7351C47.7378 64.0175 46.1339 66.1494 45.332 69.3805L44.9812 70.8462H43.4441C42.6088 70.8462 40.5539 70.7962 38.8999 70.7296L35.8927 70.6297L36.0932 69.3639C36.7113 65.5331 38.098 62.402 40.4202 59.5372C42.9429 56.406 46.5683 54.4407 51.3799 53.5913C53.3179 53.2582 58.8645 53.3914 60.9194 53.8411Z" fill="black"/>
<path d="M73.0987 37.5856V44.1311L78.8291 49.8272L84.5428 55.5233L88.6026 55.49C91.5096 55.4567 92.6456 55.49 92.6456 55.6232C92.6456 55.7232 91.5096 59.1042 90.1396 63.1181C86.1467 74.7269 86.1801 74.6269 86.0465 74.2605C84.6431 70.1467 83.8245 69.0474 77.5093 62.7684C74.6524 59.937 72.2132 57.5219 72.0796 57.422C71.9459 57.3221 71.3278 56.6892 70.6762 56.0063C67.669 52.8085 65.0961 51.4594 59.6497 50.2436C58.5805 50.0104 57.5447 49.9438 54.3871 49.9438C50.8787 49.9438 50.2772 49.9938 48.7235 50.3269C43.6446 51.4594 39.5181 54.1076 36.1934 58.3547C34.7399 60.1868 33.3365 63.5512 32.6683 66.7656C32.3508 68.2813 32 71.046 32 72.0287C32 72.5117 32.6014 73.1446 37.6636 78.1912L43.3105 83.8373L45.2986 83.854C46.4013 83.8706 48.1053 83.9206 49.1077 83.9872L50.9288 84.0871L48.2056 87.3349C45.2986 90.7992 44.0957 92.2149 43.2604 93.1643C40.3367 96.462 36.6779 100.559 34.7232 102.708L32.3341 105.339V111.302V117.264L38.0312 122.961L43.7115 128.64H65.0794H86.4307L86.531 128.09C86.5811 127.807 86.6312 124.976 86.6479 121.811L86.6646 116.065L81.0511 110.486C77.9437 107.421 75.3708 104.89 75.304 104.873C75.2372 104.856 74.7527 104.806 74.218 104.74L73.2658 104.64L74.3016 103.374C74.8863 102.691 75.9388 101.359 76.6572 100.426C77.3756 99.5099 78.0105 98.7271 78.0773 98.6938C78.1441 98.6772 80.717 101.175 83.791 104.24L89.3878 109.82H97.123H104.858L105.092 109.27C105.309 108.737 106.88 104.24 107.932 101.076C108.233 100.159 108.918 98.1775 109.436 96.6619C109.971 95.1463 110.756 92.8645 111.19 91.582C111.641 90.2996 112.911 86.5854 114.03 83.3377C115.15 80.0899 116.319 76.6755 116.62 75.7595C118.274 70.9128 120.195 65.3499 122.885 57.522C123.904 54.5407 125.274 50.5767 125.909 48.6946C126.56 46.8126 127.262 44.7473 127.496 44.1144C127.73 43.4649 127.947 42.7987 127.997 42.6155C128.064 42.3323 126.961 41.1498 122.451 36.6529L116.82 31.04H94.9679H73.0987V37.5856ZM113.529 34.8541C113.529 34.9374 113.446 35.2205 113.345 35.487C113.095 36.1032 112.009 39.2511 109.269 47.2789C108.016 50.9431 106.078 56.5559 104.975 59.7704C103.873 62.9682 101.935 68.631 100.665 72.3452C99.3952 76.0593 97.5073 81.5222 96.4882 84.5035C95.4524 87.4848 94.1158 91.4155 93.4977 93.2475L92.3616 96.5786L87.8007 96.6286C83.5237 96.6619 83.2564 96.6452 83.3399 96.3787C83.3901 96.2122 84.2922 93.564 85.3448 90.4994C86.3973 87.4349 88.7697 80.5396 90.6074 75.1766C92.4451 69.8136 95.586 60.7198 97.5574 54.957C99.5455 49.1943 101.166 44.3976 101.166 44.2977C101.149 44.1977 100.665 43.7147 100.063 43.2317L98.9608 42.3656H88.0346H77.1083V38.5349V34.7042H95.3187C106.496 34.7042 113.529 34.7708 113.529 34.8541ZM60.9194 53.8411C63.8097 54.474 65.2599 55.3201 67.7024 56.5859C68.4308 57.2605 69.1709 57.5036 70.1416 58.5379C73.3994 62.9682 74.4185 68.5478 72.8982 73.4944C71.2609 78.8407 62.7739 90.083 49.5087 104.473C48.6901 105.356 48.0385 106.155 48.0385 106.255C48.0385 106.372 48.4228 106.922 48.8906 107.471L49.7426 108.487H61.5877H73.4328V111.901V115.316H56.1747C46.6686 115.316 38.3319 115.366 37.6302 115.416L36.3438 115.532V111.602V107.654L38.783 104.956C51.5135 90.8492 61.5376 78.2078 62.9076 74.577C63.3586 73.3611 63.3753 70.8961 62.9243 69.164C62.6068 67.9315 61.9887 66.3493 61.7715 66.1827C61.7047 66.1327 61.2369 65.5165 60.7357 64.817C60.0841 63.9009 59.5662 63.3846 58.9146 63.0015C56.2583 61.386 53.2176 61.286 50.3273 62.7351C47.7378 64.0175 46.1339 66.1494 45.332 69.3805L44.9812 70.8462H43.4441C42.6088 70.8462 40.5539 70.7962 38.8999 70.7296L35.8927 70.6297L36.0932 69.3639C36.7113 65.5331 38.098 62.402 40.4202 59.5372C42.9429 56.406 46.5683 54.4407 51.3799 53.5913C53.3179 53.2582 58.8645 53.3914 60.9194 53.8411Z" stroke="white" stroke-width="16" mask="url(#path-2-outside-1_178_150)"/>
<path d="M190.76 111.792C188.744 111.792 186.848 111.48 185.072 110.856C183.344 110.232 181.424 109.224 179.312 107.832C179.264 107.784 179.192 107.76 179.096 107.76C178.904 107.76 178.664 107.88 178.376 108.12C178.136 108.312 177.944 108.504 177.8 108.696L176.72 107.904L183.488 97.968L184.64 98.76C184.352 99.144 184.208 99.576 184.208 100.056C184.208 100.296 184.28 100.488 184.424 100.632C185.528 101.448 186.44 101.976 187.16 102.216C187.88 102.456 188.816 102.576 189.968 102.576C191.408 102.576 192.656 101.952 193.712 100.704C194.816 99.456 195.368 97.728 195.368 95.52V59.16C195.368 58.92 195.176 58.728 194.792 58.584C194.408 58.44 194.048 58.368 193.712 58.368V57H206.456V58.368C206.12 58.368 205.76 58.44 205.376 58.584C204.992 58.728 204.8 58.92 204.8 59.16V95.808C204.8 100.944 203.552 104.904 201.056 107.688C198.608 110.424 195.176 111.792 190.76 111.792ZM230.551 111.864C226.999 111.864 223.855 111.12 221.119 109.632C218.431 108.096 216.319 106.008 214.783 103.368C213.295 100.728 212.551 97.752 212.551 94.44C212.551 91.176 213.295 88.2 214.783 85.512C216.319 82.824 218.455 80.712 221.191 79.176C223.927 77.592 227.047 76.8 230.551 76.8C233.911 76.8 236.959 77.568 239.695 79.104C242.431 80.592 244.591 82.68 246.175 85.368C247.759 88.008 248.551 91.032 248.551 94.44C248.551 97.416 247.831 100.248 246.391 102.936C244.999 105.576 242.935 107.736 240.199 109.416C237.463 111.048 234.247 111.864 230.551 111.864ZM230.551 103.584C233.383 103.584 235.663 102.768 237.391 101.136C239.167 99.456 240.055 97.296 240.055 94.656C240.055 91.92 239.167 89.664 237.391 87.888C235.663 86.112 233.383 85.224 230.551 85.224C227.911 85.224 225.703 86.112 223.927 87.888C222.151 89.616 221.263 91.8 221.263 94.44C221.263 97.224 222.151 99.456 223.927 101.136C225.703 102.768 227.911 103.584 230.551 103.584ZM293.718 79.248C292.71 79.248 292.086 79.44 291.846 79.824L266.646 129.432C266.598 129.48 266.574 129.552 266.574 129.648C266.574 129.936 266.742 130.176 267.078 130.368C267.414 130.56 267.846 130.656 268.374 130.656V132.024H254.838V130.656C255.846 130.656 256.47 130.464 256.71 130.08L268.446 106.968L253.686 79.752C253.494 79.416 252.87 79.248 251.814 79.248V77.88H265.134V79.248C264.558 79.248 264.198 79.368 264.054 79.608C263.958 79.848 264.006 80.112 264.198 80.4L273.342 97.32L281.91 80.472C281.958 80.424 281.982 80.352 281.982 80.256C281.982 79.968 281.814 79.728 281.478 79.536C281.142 79.344 280.71 79.248 280.182 79.248V77.88H293.718V79.248ZM370.962 108.984C371.106 109.416 371.682 109.632 372.69 109.632V111H358.074V109.632C358.698 109.632 359.13 109.488 359.37 109.2C359.61 108.912 359.658 108.624 359.514 108.336L355.554 98.184H332.082L328.122 108.336L328.05 108.552C328.05 108.84 328.17 109.104 328.41 109.344C328.698 109.536 329.058 109.632 329.49 109.632V111H315.306V109.632C316.266 109.632 316.842 109.416 317.034 108.984L337.05 60.312C337.194 60.024 337.266 59.76 337.266 59.52C337.266 59.088 337.074 58.8 336.69 58.656C336.306 58.464 335.898 58.368 335.466 58.368V57H352.242V58.368C351.81 58.368 351.402 58.464 351.018 58.656C350.634 58.8 350.442 59.088 350.442 59.52C350.442 59.76 350.514 60.024 350.658 60.312L370.962 108.984ZM343.818 68.232L335.322 89.904H352.314L343.818 68.232ZM415.27 77.88V79.248C414.934 79.248 414.574 79.32 414.19 79.464C413.854 79.608 413.686 79.8 413.686 80.04L413.758 113.664C413.758 119.664 412.03 124.296 408.574 127.56C405.118 130.872 400.414 132.528 394.462 132.528C392.014 132.528 389.422 131.832 386.686 130.44C383.95 129.096 381.43 127.08 379.126 124.392C379.078 124.248 378.934 124.176 378.694 124.176C378.31 124.176 377.902 124.344 377.47 124.68L376.678 123.6L385.678 116.472L386.542 117.552C386.302 117.744 386.062 118.008 385.822 118.344C385.63 118.68 385.606 118.968 385.75 119.208C386.95 120.888 388.246 122.136 389.638 122.952C391.03 123.768 392.71 124.176 394.678 124.176C397.798 124.176 400.246 123.408 402.022 121.872C403.798 120.384 404.686 118.104 404.686 115.032V108.48C401.662 110.832 398.182 112.008 394.246 112.008C390.694 112.008 387.526 111.288 384.742 109.848C382.006 108.36 379.846 106.296 378.262 103.656C376.726 100.968 375.958 97.896 375.958 94.44C375.958 90.984 376.774 87.96 378.406 85.368C380.038 82.728 382.246 80.712 385.03 79.32C387.814 77.88 390.886 77.16 394.246 77.16C398.278 77.16 401.758 78.264 404.686 80.472V77.88H415.27ZM394.678 104.304C397.942 104.304 400.462 103.44 402.238 101.712C404.014 99.936 404.902 97.608 404.902 94.728C404.902 91.848 403.942 89.472 402.022 87.6C400.102 85.728 397.654 84.792 394.678 84.792C391.798 84.792 389.398 85.704 387.478 87.528C385.606 89.352 384.67 91.704 384.67 94.584C384.67 97.56 385.63 99.936 387.55 101.712C389.47 103.44 391.846 104.304 394.678 104.304ZM454.571 108.84C454.571 109.08 454.739 109.272 455.075 109.416C455.459 109.56 455.819 109.632 456.155 109.632V111H447.227V108.336C444.683 110.544 441.731 111.648 438.371 111.648C433.331 111.648 429.635 110.208 427.283 107.328C424.931 104.4 423.755 100.752 423.755 96.384V80.04C423.755 79.8 423.563 79.608 423.179 79.464C422.843 79.32 422.507 79.248 422.171 79.248V77.88H434.411V79.248C434.075 79.248 433.715 79.32 433.331 79.464C432.995 79.608 432.827 79.8 432.827 80.04V95.808C432.827 97.872 433.355 99.624 434.411 101.064C435.467 102.456 437.099 103.152 439.307 103.152C441.419 103.152 443.003 102.504 444.059 101.208C445.115 99.912 445.643 98.256 445.643 96.24V80.04C445.643 79.8 445.451 79.608 445.067 79.464C444.731 79.32 444.395 79.248 444.059 79.248V77.88H456.155V79.248C455.819 79.248 455.459 79.32 455.075 79.464C454.739 79.608 454.571 79.8 454.571 80.04V108.84ZM476.78 112.08C474.332 112.08 471.956 111.576 469.652 110.568C467.396 109.56 465.116 108.12 462.812 106.248C462.716 106.152 462.596 106.104 462.452 106.104C462.068 106.104 461.66 106.32 461.228 106.752L460.22 105.888L467.42 97.68L468.428 98.616C468.236 98.856 468.068 99.144 467.924 99.48C467.828 99.816 467.876 100.08 468.068 100.272C469.652 101.712 471.116 102.792 472.46 103.512C473.852 104.184 475.292 104.52 476.78 104.52C480.476 104.52 482.324 103.296 482.324 100.848C482.324 99.744 481.748 98.904 480.596 98.328C479.492 97.704 477.62 97.032 474.98 96.312C471.572 95.4 469.1 94.224 467.564 92.784C466.028 91.296 465.26 89.28 465.26 86.736C465.26 83.712 466.244 81.264 468.212 79.392C470.18 77.472 472.868 76.512 476.276 76.512C478.004 76.512 479.564 76.776 480.956 77.304C482.348 77.832 484.028 78.768 485.996 80.112C486.044 80.16 486.14 80.184 486.284 80.184C486.524 80.184 486.764 80.112 487.004 79.968C487.244 79.824 487.412 79.68 487.508 79.536L488.588 80.472L482.108 87.816L481.1 86.952C481.292 86.76 481.412 86.52 481.46 86.232C481.556 85.896 481.508 85.632 481.316 85.44C480.452 84.768 479.612 84.264 478.796 83.928C478.028 83.592 477.164 83.424 476.204 83.424C475.196 83.424 474.404 83.616 473.828 84C473.252 84.384 472.964 84.96 472.964 85.728C472.964 86.352 473.132 86.856 473.468 87.24C473.804 87.624 474.404 88.008 475.268 88.392C476.18 88.776 477.548 89.256 479.372 89.832C482.732 90.84 485.372 92.256 487.292 94.08C489.212 95.856 490.172 98.064 490.172 100.704C490.172 104.592 488.948 107.472 486.5 109.344C484.052 111.168 480.812 112.08 476.78 112.08ZM514.592 76.44V87.384H513.224C513.224 87.048 513.152 86.736 513.008 86.448C512.864 86.112 512.672 85.944 512.432 85.944H507.752V108.84C507.752 109.08 507.92 109.272 508.256 109.416C508.592 109.56 508.928 109.632 509.264 109.632V111H497.528V109.632C497.864 109.632 498.2 109.56 498.536 109.416C498.872 109.272 499.04 109.08 499.04 108.84V85.944H495.584C495.344 85.944 495.152 86.112 495.008 86.448C494.864 86.736 494.792 87.048 494.792 87.384H493.424V76.44H494.792C494.792 76.776 494.864 77.112 495.008 77.448C495.152 77.736 495.344 77.88 495.584 77.88H499.04V69.456C499.04 69.216 498.872 69.024 498.536 68.88C498.2 68.736 497.864 68.664 497.528 68.664V67.296H509.264V68.664C508.928 68.664 508.592 68.736 508.256 68.88C507.92 69.024 507.752 69.216 507.752 69.456V77.88H512.432C512.672 77.88 512.864 77.736 513.008 77.448C513.152 77.112 513.224 76.776 513.224 76.44H514.592ZM526.615 71.832C525.079 71.832 523.759 71.304 522.655 70.248C521.599 69.192 521.071 67.872 521.071 66.288C521.071 64.8 521.599 63.528 522.655 62.472C523.759 61.368 525.079 60.816 526.615 60.816C528.151 60.816 529.447 61.368 530.503 62.472C531.559 63.528 532.087 64.8 532.087 66.288C532.087 67.872 531.559 69.192 530.503 70.248C529.447 71.304 528.151 71.832 526.615 71.832ZM521.935 80.04C521.935 79.8 521.743 79.608 521.359 79.464C521.023 79.32 520.687 79.248 520.351 79.248V77.88H532.735V79.248C532.399 79.248 532.039 79.32 531.655 79.464C531.319 79.608 531.151 79.8 531.151 80.04V108.84C531.151 109.08 531.319 109.272 531.655 109.416C532.039 109.56 532.399 109.632 532.735 109.632V111H520.351V109.632C520.687 109.632 521.023 109.56 521.359 109.416C521.743 109.272 521.935 109.08 521.935 108.84V80.04ZM579.319 79.248C578.983 79.248 578.623 79.32 578.239 79.464C577.903 79.608 577.735 79.8 577.735 80.04V108.84C577.735 109.08 577.903 109.272 578.239 109.416C578.623 109.56 578.983 109.632 579.319 109.632V111H568.663V107.04C565.639 110.304 561.823 111.936 557.215 111.936C553.711 111.936 550.615 111.24 547.927 109.848C545.287 108.408 543.223 106.368 541.735 103.728C540.295 101.088 539.575 98.016 539.575 94.512C539.575 91.104 540.367 88.08 541.951 85.44C543.583 82.752 545.743 80.688 548.431 79.248C551.119 77.76 554.047 77.016 557.215 77.016C561.823 77.016 565.639 78.792 568.663 82.344V77.88H579.319V79.248ZM558.295 104.304C560.263 104.304 562.015 103.872 563.551 103.008C565.135 102.096 566.359 100.92 567.223 99.48C568.087 97.992 568.519 96.408 568.519 94.728C568.519 91.848 567.559 89.472 565.639 87.6C563.767 85.728 561.319 84.792 558.295 84.792C555.367 84.792 552.943 85.704 551.023 87.528C549.151 89.352 548.215 91.68 548.215 94.512C548.215 97.488 549.175 99.864 551.095 101.64C553.063 103.416 555.463 104.304 558.295 104.304ZM621.641 108.84C621.641 109.08 621.809 109.272 622.145 109.416C622.529 109.56 622.913 109.632 623.297 109.632V111H610.625V109.632C611.009 109.632 611.369 109.56 611.705 109.416C612.089 109.272 612.281 109.08 612.281 108.84V93.864C612.281 91.416 611.681 89.328 610.481 87.6C609.281 85.824 607.481 84.936 605.081 84.936C602.633 84.936 600.641 85.752 599.105 87.384C597.617 89.016 596.873 91.368 596.873 94.44V108.84C596.873 109.08 597.041 109.272 597.377 109.416C597.761 109.56 598.145 109.632 598.529 109.632V111H585.929V109.632C586.313 109.632 586.673 109.56 587.009 109.416C587.393 109.272 587.585 109.08 587.585 108.84V80.04C587.585 79.8 587.393 79.608 587.009 79.464C586.673 79.32 586.337 79.248 586.001 79.248V77.88H596.873V80.832C598.121 79.68 599.585 78.792 601.265 78.168C602.993 77.496 604.745 77.16 606.521 77.16C609.593 77.16 612.257 77.808 614.513 79.104C616.817 80.4 618.569 82.152 619.769 84.36C621.017 86.52 621.641 88.944 621.641 91.632V108.84Z" fill="#3178C6"/>
</svg>
