<svg width="670" height="160" viewBox="0 0 670 160" fill="none" xmlns="http://www.w3.org/2000/svg">
<path d="M158 80C158 123.078 123.078 158 80 158C36.9218 158 2 123.078 2 80C2 36.9218 36.9218 2 80 2C123.078 2 158 36.9218 158 80Z" fill="#3178C6" stroke="white" stroke-width="4"/>
<path d="M73.0987 38.4382V44.8765L78.8291 50.4792L84.5428 56.0819L88.6026 56.0491C91.5096 56.0164 92.6456 56.0491 92.6456 56.1802C92.6456 56.2785 91.5096 59.6041 90.1396 63.5522C86.1467 74.9707 86.1801 74.8724 86.0465 74.5119C84.6431 70.4655 83.8245 69.3843 77.5093 63.2082C74.6524 60.4232 72.2132 58.0478 72.0796 57.9495C71.9459 57.8512 71.3278 57.2287 70.6762 56.557C67.669 53.4116 65.0961 52.0846 59.6497 50.8887C58.5805 50.6594 57.5447 50.5939 54.3871 50.5939C50.8787 50.5939 50.2772 50.643 48.7235 50.9706C43.6446 52.0846 39.5181 54.6894 36.1934 58.8669C34.7399 60.6689 33.3365 63.9782 32.6683 67.1399C32.3508 68.6307 32 71.3502 32 72.3167C32 72.7918 32.6014 73.4143 37.6636 78.3782L43.3105 83.9317L45.2986 83.9481C46.4013 83.9645 48.1053 84.0137 49.1077 84.0792L50.9288 84.1775L48.2056 87.372C45.2986 90.7795 44.0957 92.172 43.2604 93.1058C40.3367 96.3495 36.6779 100.38 34.7232 102.493L32.3341 105.081V110.946V116.811L38.0312 122.414L43.7115 128H65.0794H86.4307L86.531 127.459C86.5811 127.181 86.6312 124.396 86.6479 121.283L86.6646 115.631L81.0511 110.143C77.9437 107.129 75.3708 104.639 75.304 104.623C75.2372 104.606 74.7527 104.557 74.218 104.491L73.2658 104.393L74.3016 103.148C74.8863 102.476 75.9388 101.166 76.6572 100.248C77.3756 99.3474 78.0105 98.5775 78.0773 98.5447C78.1441 98.5283 80.717 100.986 83.791 104L89.3878 109.488H97.123H104.858L105.092 108.947C105.309 108.423 106.88 104 107.932 100.887C108.233 99.9864 108.918 98.0369 109.436 96.5461C109.971 95.0553 110.756 92.8109 111.19 91.5495C111.641 90.2881 112.911 86.6348 114.03 83.4403C115.15 80.2457 116.319 76.8874 116.62 75.9863C118.274 71.2191 120.195 65.7474 122.885 58.0478C123.904 55.1154 125.274 51.2164 125.909 49.3652C126.56 47.514 127.262 45.4826 127.496 44.8601C127.73 44.2212 127.947 43.5659 127.997 43.3857C128.064 43.1072 126.961 41.944 122.451 37.5208L116.82 32H94.9679H73.0987V38.4382ZM113.529 35.7515C113.529 35.8334 113.446 36.1119 113.345 36.3741C113.095 36.9802 112.009 40.0765 109.269 47.9727C108.016 51.5768 106.078 57.0976 104.975 60.2594C103.873 63.4048 101.935 68.9747 100.665 72.628C99.3952 76.2812 97.5073 81.6546 96.4882 84.587C95.4524 87.5195 94.1158 91.3857 93.4977 93.1877L92.3616 96.4642L87.8007 96.5133C83.5237 96.5461 83.2564 96.5297 83.3399 96.2676C83.3901 96.1038 84.2922 93.499 85.3448 90.4846C86.3973 87.4703 88.7697 80.6881 90.6074 75.413C92.4451 70.1379 95.586 61.1932 97.5574 55.5249C99.5455 49.8567 101.166 45.1386 101.166 45.0403C101.149 44.942 100.665 44.4669 100.063 43.9918L98.9608 43.1399H88.0346H77.1083V39.372V35.6041H95.3187C106.496 35.6041 113.529 35.6696 113.529 35.7515ZM60.9194 54.4273C63.8097 55.0498 65.2599 55.882 67.7024 57.1271C68.4308 57.7906 69.1709 58.0298 70.1416 59.0471C73.3994 63.4048 74.4185 68.8928 72.8982 73.7584C71.2609 79.0171 62.7739 90.0751 49.5087 104.229C48.6901 105.098 48.0385 105.884 48.0385 105.982C48.0385 106.097 48.4228 106.638 48.8906 107.178L49.7426 108.177H61.5877H73.4328V111.536V114.894H56.1747C46.6686 114.894 38.3319 114.943 37.6302 114.992L36.3438 115.107V111.241V107.358L38.783 104.704C51.5135 90.8287 61.5376 78.3945 62.9076 74.8232C63.3586 73.6273 63.3753 71.2027 62.9243 69.499C62.6068 68.2867 61.9887 66.7304 61.7715 66.5666C61.7047 66.5174 61.2369 65.9113 60.7357 65.2232C60.0841 64.3222 59.5662 63.8143 58.9146 63.4375C56.2583 61.8485 53.2176 61.7502 50.3273 63.1754C47.7378 64.4369 46.1339 66.5338 45.332 69.7119L44.9812 71.1536H43.4441C42.6088 71.1536 40.5539 71.1044 38.8999 71.0389L35.8927 70.9406L36.0932 69.6956C36.7113 65.9276 38.098 62.8478 40.4202 60.03C42.9429 56.9502 46.5683 55.0171 51.3799 54.1816C53.3179 53.8539 58.8645 53.985 60.9194 54.4273Z" fill="black"/>
<path d="M191.531 98.938C189.301 98.938 187.204 98.591 185.239 97.897C183.327 97.2031 181.204 96.082 178.867 94.5338C178.814 94.4805 178.734 94.4538 178.628 94.4538C178.416 94.4538 178.15 94.5872 177.832 94.8541C177.566 95.0677 177.354 95.2812 177.195 95.4948L176 94.6139L183.487 83.5634L184.761 84.4442C184.442 84.8713 184.283 85.3518 184.283 85.8856C184.283 86.1525 184.363 86.3661 184.522 86.5262C185.743 87.4338 186.752 88.021 187.549 88.2879C188.345 88.5548 189.381 88.6883 190.655 88.6883C192.248 88.6883 193.628 87.9943 194.796 86.6063C196.018 85.2183 196.628 83.2965 196.628 80.8408V40.4023C196.628 40.1354 196.416 39.9218 195.991 39.7617C195.566 39.6015 195.168 39.5214 194.796 39.5214V38H208.894V39.5214C208.522 39.5214 208.124 39.6015 207.699 39.7617C207.274 39.9218 207.062 40.1354 207.062 40.4023V81.1611C207.062 86.8732 205.681 91.2774 202.92 94.3737C200.212 97.4166 196.416 98.938 191.531 98.938ZM235.547 99.0181C231.618 99.0181 228.14 98.1907 225.114 96.5358C222.14 94.8275 219.804 92.5052 218.105 89.5691C216.459 86.633 215.636 83.3232 215.636 79.6397C215.636 76.0095 216.459 72.6997 218.105 69.7102C219.804 66.7207 222.167 64.3718 225.193 62.6635C228.22 60.9018 231.671 60.021 235.547 60.021C239.264 60.021 242.636 60.8751 245.662 62.5834C248.689 64.2383 251.078 66.5605 252.831 69.55C254.583 72.4862 255.459 75.8494 255.459 79.6397C255.459 82.9495 254.662 86.0991 253.07 89.0887C251.53 92.0248 249.247 94.4271 246.22 96.2955C243.193 98.1106 239.636 99.0181 235.547 99.0181ZM235.547 89.8093C238.68 89.8093 241.202 88.9018 243.114 87.0868C245.078 85.2183 246.061 82.816 246.061 79.8799C246.061 76.837 245.078 74.3279 243.114 72.3527C241.202 70.3775 238.68 69.3899 235.547 69.3899C232.627 69.3899 230.185 70.3775 228.22 72.3527C226.255 74.2745 225.273 76.7035 225.273 79.6397C225.273 82.7359 226.255 85.2183 228.22 87.0868C230.185 88.9018 232.627 89.8093 235.547 89.8093ZM305.422 62.7436C304.307 62.7436 303.617 62.9571 303.351 63.3842L275.475 118.557C275.422 118.61 275.396 118.69 275.396 118.797C275.396 119.117 275.582 119.384 275.953 119.598C276.325 119.811 276.803 119.918 277.387 119.918V121.439H262.414V119.918C263.529 119.918 264.219 119.704 264.484 119.277L277.467 93.5729L261.139 63.3041C260.927 62.9304 260.237 62.7436 259.068 62.7436V61.2221H273.803V62.7436C273.166 62.7436 272.767 62.877 272.608 63.1439C272.502 63.4109 272.555 63.7045 272.767 64.0248L282.883 82.8427L292.36 64.1049C292.413 64.0515 292.44 63.9714 292.44 63.8646C292.44 63.5443 292.254 63.2774 291.882 63.0639C291.511 62.8503 291.033 62.7436 290.449 62.7436V61.2221H305.422V62.7436ZM390.869 95.8151C391.028 96.2955 391.665 96.5358 392.78 96.5358V98.0572H376.612V96.5358C377.303 96.5358 377.781 96.3756 378.046 96.0553C378.311 95.735 378.365 95.4147 378.205 95.0944L373.825 83.8036H347.86L343.48 95.0944L343.4 95.3346C343.4 95.6549 343.533 95.9485 343.798 96.2154C344.117 96.429 344.515 96.5358 344.993 96.5358V98.0572H329.303V96.5358C330.365 96.5358 331.002 96.2955 331.214 95.8151L353.356 41.6835C353.515 41.3632 353.595 41.0696 353.595 40.8027C353.595 40.3222 353.382 40.0019 352.958 39.8418C352.533 39.6282 352.081 39.5214 351.604 39.5214V38H370.161V39.5214C369.683 39.5214 369.232 39.6282 368.807 39.8418C368.382 40.0019 368.17 40.3222 368.17 40.8027C368.17 41.0696 368.25 41.3632 368.409 41.6835L390.869 95.8151ZM360.842 50.4919L351.444 74.5949H370.241L360.842 50.4919ZM439.882 61.2221V62.7436C439.51 62.7436 439.112 62.8236 438.687 62.9838C438.316 63.1439 438.13 63.3575 438.13 63.6244L438.21 101.02C438.21 107.693 436.298 112.845 432.475 116.475C428.652 120.158 423.449 122 416.865 122C414.157 122 411.289 121.226 408.263 119.678C405.236 118.183 402.449 115.941 399.9 112.951C399.847 112.791 399.688 112.711 399.422 112.711C398.997 112.711 398.546 112.898 398.068 113.272L397.192 112.071L407.148 104.143L408.103 105.344C407.838 105.558 407.572 105.851 407.307 106.225C407.095 106.599 407.068 106.919 407.227 107.186C408.555 109.054 409.988 110.442 411.528 111.35C413.068 112.257 414.926 112.711 417.103 112.711C420.555 112.711 423.263 111.857 425.227 110.149C427.192 108.494 428.174 105.958 428.174 102.541V95.2545C424.829 97.8704 420.98 99.1783 416.626 99.1783C412.696 99.1783 409.192 98.3775 406.112 96.776C403.086 95.1211 400.696 92.8255 398.944 89.8894C397.245 86.8999 396.396 83.4833 396.396 79.6397C396.396 75.796 397.298 72.4328 399.103 69.55C400.909 66.6139 403.351 64.3718 406.431 62.8236C409.511 61.2221 412.909 60.4214 416.626 60.4214C421.086 60.4214 424.935 61.6492 428.174 64.1049V61.2221H439.882ZM417.103 90.6101C420.714 90.6101 423.502 89.6492 425.466 87.7274C427.431 85.7521 428.413 83.163 428.413 79.96C428.413 76.7569 427.351 74.1144 425.227 72.0324C423.103 69.9504 420.395 68.9094 417.103 68.9094C413.918 68.9094 411.263 69.9237 409.139 71.9523C407.068 73.9809 406.033 76.5968 406.033 79.7998C406.033 83.1096 407.095 85.7521 409.218 87.7274C411.342 89.6492 413.971 90.6101 417.103 90.6101ZM483.357 95.6549C483.357 95.9218 483.542 96.1354 483.914 96.2955C484.339 96.4557 484.737 96.5358 485.109 96.5358V98.0572H475.233V95.0944C472.419 97.55 469.153 98.7779 465.436 98.7779C459.861 98.7779 455.773 97.1764 453.171 93.9733C450.569 90.7169 449.268 86.6597 449.268 81.8017V63.6244C449.268 63.3575 449.056 63.1439 448.631 62.9838C448.259 62.8236 447.888 62.7436 447.516 62.7436V61.2221H461.056V62.7436C460.684 62.7436 460.286 62.8236 459.861 62.9838C459.489 63.1439 459.304 63.3575 459.304 63.6244V81.1611C459.304 83.4566 459.888 85.4052 461.056 87.0067C462.224 88.5548 464.029 89.3289 466.472 89.3289C468.808 89.3289 470.56 88.6082 471.728 87.1668C472.896 85.7255 473.481 83.8837 473.481 81.6416V63.6244C473.481 63.3575 473.268 63.1439 472.843 62.9838C472.472 62.8236 472.1 62.7436 471.728 62.7436V61.2221H485.109V62.7436C484.737 62.7436 484.339 62.8236 483.914 62.9838C483.542 63.1439 483.357 63.3575 483.357 63.6244V95.6549ZM507.924 99.2583C505.216 99.2583 502.588 98.6978 500.039 97.5767C497.544 96.4557 495.021 94.8542 492.473 92.7722C492.367 92.6654 492.234 92.612 492.075 92.612C491.65 92.612 491.198 92.8522 490.721 93.3327L489.605 92.3718L497.57 83.2431L498.685 84.2841C498.473 84.551 498.287 84.8713 498.128 85.245C498.021 85.6187 498.075 85.9123 498.287 86.1258C500.039 87.7274 501.659 88.9285 503.145 89.7293C504.685 90.4766 506.278 90.8503 507.924 90.8503C512.013 90.8503 514.057 89.489 514.057 86.7664C514.057 85.5386 513.42 84.6044 512.145 83.9638C510.924 83.2698 508.853 82.5224 505.933 81.7216C502.163 80.7073 499.428 79.3994 497.729 77.7979C496.03 76.143 495.181 73.9009 495.181 71.0715C495.181 67.7083 496.269 64.9857 498.446 62.9037C500.623 60.7684 503.597 59.7007 507.367 59.7007C509.278 59.7007 511.004 59.9943 512.543 60.5815C514.083 61.1687 515.942 62.2097 518.119 63.7045C518.172 63.7579 518.278 63.7846 518.437 63.7846C518.703 63.7846 518.968 63.7045 519.234 63.5443C519.499 63.3842 519.685 63.224 519.791 63.0639L520.986 64.1049L513.818 72.2726L512.703 71.3117C512.915 71.0982 513.048 70.8313 513.101 70.511C513.207 70.1373 513.154 69.8437 512.942 69.6301C511.986 68.8827 511.057 68.3222 510.154 67.9485C509.305 67.5748 508.349 67.388 507.287 67.388C506.172 67.388 505.296 67.6015 504.659 68.0286C504.021 68.4557 503.703 69.0963 503.703 69.9504C503.703 70.6444 503.889 71.205 504.26 71.632C504.632 72.0591 505.296 72.4862 506.251 72.9132C507.26 73.3403 508.774 73.8742 510.791 74.5148C514.508 75.6358 517.428 77.2107 519.552 79.2393C521.676 81.2145 522.738 83.6702 522.738 86.6063C522.738 90.9304 521.384 94.1335 518.676 96.2154C515.968 98.244 512.384 99.2583 507.924 99.2583ZM549.751 59.6206V71.7922H548.238C548.238 71.4185 548.158 71.0715 547.999 70.7512C547.84 70.3775 547.627 70.1907 547.362 70.1907H542.185V95.6549C542.185 95.9218 542.371 96.1354 542.743 96.2955C543.114 96.4557 543.486 96.5358 543.858 96.5358V98.0572H530.875V96.5358C531.247 96.5358 531.619 96.4557 531.99 96.2955C532.362 96.1354 532.548 95.9218 532.548 95.6549V70.1907H528.725C528.459 70.1907 528.247 70.3775 528.088 70.7512C527.928 71.0715 527.849 71.4185 527.849 71.7922H526.336V59.6206H527.849C527.849 59.9943 527.928 60.368 528.088 60.7417C528.247 61.062 528.459 61.2221 528.725 61.2221H532.548V51.8532C532.548 51.5863 532.362 51.3727 531.99 51.2126C531.619 51.0524 531.247 50.9724 530.875 50.9724V49.4509H543.858V50.9724C543.486 50.9724 543.114 51.0524 542.743 51.2126C542.371 51.3727 542.185 51.5863 542.185 51.8532V61.2221H547.362C547.627 61.2221 547.84 61.062 547.999 60.7417C548.158 60.368 548.238 59.9943 548.238 59.6206H549.751ZM563.051 54.4957C561.352 54.4957 559.892 53.9085 558.671 52.734C557.503 51.5596 556.918 50.0915 556.918 48.3298C556.918 46.6749 557.503 45.2602 558.671 44.0858C559.892 42.858 561.352 42.244 563.051 42.244C564.75 42.244 566.184 42.858 567.352 44.0858C568.52 45.2602 569.104 46.6749 569.104 48.3298C569.104 50.0915 568.52 51.5596 567.352 52.734C566.184 53.9085 564.75 54.4957 563.051 54.4957ZM557.874 63.6244C557.874 63.3575 557.662 63.1439 557.237 62.9838C556.865 62.8236 556.494 62.7436 556.122 62.7436V61.2221H569.821V62.7436C569.449 62.7436 569.051 62.8236 568.626 62.9838C568.255 63.1439 568.069 63.3575 568.069 63.6244V95.6549C568.069 95.9218 568.255 96.1354 568.626 96.2955C569.051 96.4557 569.449 96.5358 569.821 96.5358V98.0572H556.122V96.5358C556.494 96.5358 556.865 96.4557 557.237 96.2955C557.662 96.1354 557.874 95.9218 557.874 95.6549V63.6244ZM621.352 62.7436C620.98 62.7436 620.582 62.8236 620.157 62.9838C619.786 63.1439 619.6 63.3575 619.6 63.6244V95.6549C619.6 95.9218 619.786 96.1354 620.157 96.2955C620.582 96.4557 620.98 96.5358 621.352 96.5358V98.0572H609.564V93.653C606.219 97.2831 601.998 99.0982 596.901 99.0982C593.025 99.0982 589.6 98.3241 586.626 96.776C583.706 95.1745 581.423 92.9056 579.777 89.9695C578.184 87.0334 577.387 83.6168 577.387 79.7197C577.387 75.9295 578.263 72.5663 580.016 69.6301C581.821 66.6406 584.21 64.3451 587.184 62.7436C590.157 61.0887 593.396 60.2612 596.901 60.2612C601.998 60.2612 606.219 62.2364 609.564 66.1868V61.2221H621.352V62.7436ZM598.095 90.6101C600.272 90.6101 602.21 90.1297 603.909 89.1687C605.662 88.1544 607.016 86.8465 607.971 85.245C608.927 83.5901 609.405 81.8284 609.405 79.96C609.405 76.7569 608.343 74.1144 606.219 72.0324C604.148 69.9504 601.44 68.9094 598.095 68.9094C594.856 68.9094 592.175 69.9237 590.051 71.9523C587.98 73.9809 586.945 76.5701 586.945 79.7197C586.945 83.0296 588.007 85.6721 590.131 87.6473C592.308 89.6225 594.963 90.6101 598.095 90.6101ZM668.168 95.6549C668.168 95.9218 668.354 96.1354 668.726 96.2955C669.15 96.4557 669.575 96.5358 670 96.5358V98.0572H655.982V96.5358C656.407 96.5358 656.805 96.4557 657.177 96.2955C657.602 96.1354 657.814 95.9218 657.814 95.6549V78.999C657.814 76.2765 657.15 73.9542 655.823 72.0324C654.496 70.0572 652.504 69.0696 649.85 69.0696C647.142 69.0696 644.938 69.9771 643.239 71.7922C641.593 73.6072 640.77 76.2231 640.77 79.6397V95.6549C640.77 95.9218 640.956 96.1354 641.328 96.2955C641.752 96.4557 642.177 96.5358 642.602 96.5358V98.0572H628.664V96.5358C629.089 96.5358 629.487 96.4557 629.858 96.2955C630.283 96.1354 630.496 95.9218 630.496 95.6549V63.6244C630.496 63.3575 630.283 63.1439 629.858 62.9838C629.487 62.8236 629.115 62.7436 628.743 62.7436V61.2221H640.77V64.5052C642.15 63.224 643.77 62.2364 645.628 61.5424C647.54 60.795 649.478 60.4214 651.443 60.4214C654.841 60.4214 657.788 61.142 660.283 62.5834C662.832 64.0248 664.77 65.9733 666.097 68.429C667.478 70.8313 668.168 73.5272 668.168 76.5167V95.6549Z" fill="black"/>
</svg>
