<svg width="104" height="104" viewBox="0 0 104 104" fill="none" xmlns="http://www.w3.org/2000/svg">
<circle cx="52" cy="52" r="51" fill="#D8DCDA" stroke="#6A5443" stroke-width="2"/>
<path d="M33.3359 67.1719C33.3359 66.5625 33.3594 66.0234 33.4062 65.5547C33.5 65.0859 33.9219 64.7344 34.6719 64.5C35.4688 64.8281 36.0547 65.3438 36.4297 66.0469C36.8047 66.7031 37.1094 67.4531 37.3438 68.2969C37.625 69.1406 37.8594 70.0078 38.0469 70.8984C38.2812 71.7891 38.6094 72.5859 39.0312 73.2891C39.4531 73.9922 40.0625 74.5547 40.8594 74.9766C41.6562 75.3516 42.7344 75.4688 44.0938 75.3281C46.5312 75.0938 48.5938 74.6719 50.2812 74.0625C51.9688 73.4062 53.3516 72.6094 54.4297 71.6719C55.5547 70.7344 56.4219 69.6328 57.0312 68.3672C57.6875 67.1016 58.1562 65.6953 58.4375 64.1484C58.7656 62.6016 58.9531 60.9375 59 59.1562C59.0938 57.3281 59.1406 55.3828 59.1406 53.3203C59.1406 51.2109 58.9766 49.125 58.6484 47.0625C58.3672 45 58.0391 42.9609 57.6641 40.9453C57.3359 38.8828 57.0078 36.8438 56.6797 34.8281C56.3984 32.7656 56.2578 30.7031 56.2578 28.6406C56.2578 28.4062 56.2578 28.2188 56.2578 28.0781C56.3047 27.8906 56.4219 27.7734 56.6094 27.7266C56.8438 27.6328 57.125 27.6094 57.4531 27.6562C57.8281 27.7031 58.3438 27.8437 59 28.0781C59.0469 28.125 59.1406 28.4531 59.2812 29.0625C59.4688 29.625 59.6562 30.3516 59.8438 31.2422C60.0312 32.1328 60.2188 33.1172 60.4062 34.1953C60.5938 35.2734 60.7578 36.3516 60.8984 37.4297C61.0859 38.5078 61.25 39.5391 61.3906 40.5234C61.5312 41.4609 61.625 42.2578 61.6719 42.9141C61.8594 45.7266 62.0938 48.5859 62.375 51.4922C62.6562 54.3984 62.7734 57.2109 62.7266 59.9297C62.6797 62.6484 62.375 65.1797 61.8125 67.5234C61.2969 69.8203 60.3359 71.8125 58.9297 73.5C57.5234 75.1406 55.5781 76.4062 53.0938 77.2969C50.6094 78.1406 47.4219 78.4219 43.5312 78.1406C42.125 78.1406 40.7891 77.8359 39.5234 77.2266C38.3047 76.5703 37.2266 75.7266 36.2891 74.6953C35.3984 73.6641 34.6719 72.4922 34.1094 71.1797C33.5938 69.8672 33.3359 68.5312 33.3359 67.1719Z" fill="#6A5443"/>
<path d="M38.4062 60.4909C38.4062 59.5925 38.4844 58.5573 38.6406 57.3855C38.7969 56.1745 39.0508 54.9636 39.4023 53.7527C39.7539 52.5417 40.1836 51.3503 40.6914 50.1784C41.2383 49.0066 41.8828 47.9714 42.625 47.073C43.3672 46.1355 44.2266 45.3933 45.2031 44.8464C46.1797 44.2605 47.2734 43.9675 48.4844 43.9675C49.7344 43.9675 50.8867 44.3972 51.9414 45.2566C53.0352 46.1159 53.9531 47.2292 54.6953 48.5964C55.4766 49.9636 56.0625 51.487 56.4531 53.1667C56.8438 54.8464 57 56.487 56.9219 58.0886C56.9219 60.4323 56.4727 62.5222 55.5742 64.3581C54.6758 66.1941 53.5234 67.6784 52.1172 68.8112C50.75 69.9441 49.2656 70.7058 47.6641 71.0964C46.1016 71.487 44.6172 71.3894 43.2109 70.8034C41.8438 70.1784 40.6914 69.0261 39.7539 67.3464C38.8555 65.6667 38.4062 63.3816 38.4062 60.4909ZM40.5742 60.7253C40.6914 63.1081 41.1016 64.9441 41.8047 66.2331C42.5078 67.5222 43.3477 68.3816 44.3242 68.8112C45.3398 69.2019 46.4336 69.2019 47.6055 68.8112C48.7773 68.4206 49.8711 67.737 50.8867 66.7605C51.9023 65.7448 52.7617 64.4948 53.4648 63.0105C54.207 61.487 54.6172 59.7878 54.6953 57.9128C54.7734 56.5066 54.6562 55.1394 54.3438 53.8112C54.0703 52.4831 53.6602 51.3112 53.1133 50.2956C52.6055 49.2409 51.9609 48.4206 51.1797 47.8347C50.4375 47.2097 49.5781 46.8972 48.6016 46.8972C47.6641 46.8972 46.8242 47.1316 46.082 47.6003C45.3398 48.0691 44.6562 48.7136 44.0312 49.5339C43.4453 50.3152 42.9375 51.2136 42.5078 52.2292C42.0781 53.2448 41.707 54.2605 41.3945 55.2761C41.1211 56.2917 40.9062 57.2878 40.75 58.2644C40.6328 59.2019 40.5742 60.0222 40.5742 60.7253Z" fill="#6A5443"/>
<path d="M58.9609 54.4915C58.2773 53.4889 57.3431 52.2585 56.1582 50.8001C55.0189 49.3418 53.7884 47.7695 52.4668 46.0833C51.1452 44.3516 49.778 42.5742 48.3652 40.7513C46.9525 38.9284 45.6309 37.1738 44.4004 35.4876C43.2155 33.7559 42.1673 32.1608 41.2559 30.7025C40.3444 29.1986 39.6836 27.9225 39.2734 26.8744L40.6406 25.6439C42.3268 27.4668 43.7852 29.153 45.0156 30.7025C46.2917 32.2064 47.431 33.6419 48.4336 35.0091C49.4362 36.3307 50.3477 37.6068 51.168 38.8372C51.9883 40.0677 52.8314 41.321 53.6973 42.597C54.6087 43.8275 55.5885 45.1035 56.6367 46.4251C57.6849 47.7012 58.9154 49.0684 60.3281 50.5267C60.6016 49.2507 60.8522 47.8379 61.0801 46.2884C61.3535 44.6934 61.627 43.0527 61.9004 41.3665C62.1738 39.6803 62.4701 37.9714 62.7891 36.2396C63.1081 34.4622 63.4727 32.7761 63.8828 31.181C64.293 29.5404 64.7259 28.0137 65.1816 26.6009C65.6829 25.1882 66.2526 23.9805 66.8906 22.9779C66.9362 22.9323 67.0273 22.9095 67.1641 22.9095C67.3464 22.9095 67.4831 22.9095 67.5742 22.9095C67.7109 22.9095 67.8932 22.9323 68.1211 22.9779C68.3945 23.0234 68.6452 23.1146 68.873 23.2513C69.1009 23.3425 69.2832 23.4792 69.4199 23.6615C69.5566 23.8438 69.5794 24.0488 69.4883 24.2767C68.987 25.3249 68.4629 26.7376 67.916 28.515C67.4147 30.2923 66.9134 32.2975 66.4121 34.5306C65.9564 36.7181 65.5234 39.1107 65.1133 41.7083C64.7031 44.2604 64.3158 46.8581 63.9512 49.5013C63.6322 52.1445 63.3359 54.7878 63.0625 57.431C62.7891 60.0287 62.584 62.4668 62.4473 64.7455C62.3105 67.0241 62.2422 69.0977 62.2422 70.9662C62.2878 72.8346 62.4017 74.3386 62.584 75.4779C62.4928 75.9792 62.4017 76.3665 62.3105 76.64C62.265 76.8678 62.1283 77.0501 61.9004 77.1869C61.6725 77.3236 61.3307 77.3919 60.875 77.3919C60.4193 77.4375 59.7812 77.4603 58.9609 77.4603V54.4915Z" fill="#6A5443"/>
</svg>
