<svg width="160" height="160" viewBox="0 0 160 160" fill="none" xmlns="http://www.w3.org/2000/svg">
<path d="M158 80C158 123.078 123.078 158 80 158C36.9218 158 2 123.078 2 80C2 36.9218 36.9218 2 80 2C123.078 2 158 36.9218 158 80Z" fill="#3178C6" stroke="white" stroke-width="4"/>
<path d="M73.0987 38.4382V44.8765L78.8291 50.4792L84.5428 56.0819L88.6026 56.0491C91.5096 56.0164 92.6456 56.0491 92.6456 56.1802C92.6456 56.2785 91.5096 59.6041 90.1396 63.5522C86.1467 74.9707 86.1801 74.8724 86.0465 74.5119C84.6431 70.4655 83.8245 69.3843 77.5093 63.2082C74.6524 60.4232 72.2132 58.0478 72.0796 57.9495C71.9459 57.8512 71.3278 57.2287 70.6762 56.557C67.669 53.4116 65.0961 52.0846 59.6497 50.8887C58.5805 50.6594 57.5447 50.5939 54.3871 50.5939C50.8787 50.5939 50.2772 50.643 48.7235 50.9706C43.6446 52.0846 39.5181 54.6894 36.1934 58.8669C34.7399 60.6689 33.3365 63.9782 32.6683 67.1399C32.3508 68.6307 32 71.3502 32 72.3167C32 72.7918 32.6014 73.4143 37.6636 78.3782L43.3105 83.9317L45.2986 83.9481C46.4013 83.9645 48.1053 84.0137 49.1077 84.0792L50.9288 84.1775L48.2056 87.372C45.2986 90.7795 44.0957 92.172 43.2604 93.1058C40.3367 96.3495 36.6779 100.38 34.7232 102.493L32.3341 105.081V110.946V116.811L38.0312 122.414L43.7115 128H65.0794H86.4307L86.531 127.459C86.5811 127.181 86.6312 124.396 86.6479 121.283L86.6646 115.631L81.0511 110.143C77.9437 107.129 75.3708 104.639 75.304 104.623C75.2372 104.606 74.7527 104.557 74.218 104.491L73.2658 104.393L74.3016 103.148C74.8863 102.476 75.9388 101.166 76.6572 100.248C77.3756 99.3474 78.0105 98.5775 78.0773 98.5447C78.1441 98.5283 80.717 100.986 83.791 104L89.3878 109.488H97.123H104.858L105.092 108.947C105.309 108.423 106.88 104 107.932 100.887C108.233 99.9864 108.918 98.0369 109.436 96.5461C109.971 95.0553 110.756 92.8109 111.19 91.5495C111.641 90.2881 112.911 86.6348 114.03 83.4403C115.15 80.2457 116.319 76.8874 116.62 75.9863C118.274 71.2191 120.195 65.7474 122.885 58.0478C123.904 55.1154 125.274 51.2164 125.909 49.3652C126.56 47.514 127.262 45.4826 127.496 44.8601C127.73 44.2212 127.947 43.5659 127.997 43.3857C128.064 43.1072 126.961 41.944 122.451 37.5208L116.82 32H94.9679H73.0987V38.4382ZM113.529 35.7515C113.529 35.8334 113.446 36.1119 113.345 36.3741C113.095 36.9802 112.009 40.0765 109.269 47.9727C108.016 51.5768 106.078 57.0976 104.975 60.2594C103.873 63.4048 101.935 68.9747 100.665 72.628C99.3952 76.2812 97.5073 81.6546 96.4882 84.587C95.4524 87.5195 94.1158 91.3857 93.4977 93.1877L92.3616 96.4642L87.8007 96.5133C83.5237 96.5461 83.2564 96.5297 83.3399 96.2676C83.3901 96.1038 84.2922 93.499 85.3448 90.4846C86.3973 87.4703 88.7697 80.6881 90.6074 75.413C92.4451 70.1379 95.586 61.1932 97.5574 55.5249C99.5455 49.8567 101.166 45.1386 101.166 45.0403C101.149 44.942 100.665 44.4669 100.063 43.9918L98.9608 43.1399H88.0346H77.1083V39.372V35.6041H95.3187C106.496 35.6041 113.529 35.6696 113.529 35.7515ZM60.9194 54.4273C63.8097 55.0498 65.2599 55.882 67.7024 57.1271C68.4308 57.7906 69.1709 58.0298 70.1416 59.0471C73.3994 63.4048 74.4185 68.8928 72.8982 73.7584C71.2609 79.0171 62.7739 90.0751 49.5087 104.229C48.6901 105.098 48.0385 105.884 48.0385 105.982C48.0385 106.097 48.4228 106.638 48.8906 107.178L49.7426 108.177H61.5877H73.4328V111.536V114.894H56.1747C46.6686 114.894 38.3319 114.943 37.6302 114.992L36.3438 115.107V111.241V107.358L38.783 104.704C51.5135 90.8287 61.5376 78.3945 62.9076 74.8232C63.3586 73.6273 63.3753 71.2027 62.9243 69.499C62.6068 68.2867 61.9887 66.7304 61.7715 66.5666C61.7047 66.5174 61.2369 65.9113 60.7357 65.2232C60.0841 64.3222 59.5662 63.8143 58.9146 63.4375C56.2583 61.8485 53.2176 61.7502 50.3273 63.1754C47.7378 64.4369 46.1339 66.5338 45.332 69.7119L44.9812 71.1536H43.4441C42.6088 71.1536 40.5539 71.1044 38.8999 71.0389L35.8927 70.9406L36.0932 69.6956C36.7113 65.9276 38.098 62.8478 40.4202 60.03C42.9429 56.9502 46.5683 55.0171 51.3799 54.1816C53.3179 53.8539 58.8645 53.985 60.9194 54.4273Z" fill="white"/>
</svg>
