<?xml version="1.0" encoding="utf-8"?>
<!-- Generator: Adobe Illustrator 21.0.0, SVG Export Plug-In . SVG Version: 6.00 Build 0)  -->
<svg version="1.1" id="Capa_1" xmlns="http://www.w3.org/2000/svg" xmlns:xlink="http://www.w3.org/1999/xlink" x="0px" y="0px"
	 viewBox="0 0 454.2 454.2" style="enable-background:new 0 0 454.2 454.2;" xml:space="preserve">
<style type="text/css">
	.st0{fill:#FFFFFF;stroke:#000000;stroke-miterlimit:10;}
</style>
<g id="XMLID_5_">
	<circle id="XMLID_451_" class="st0" cx="72.6" cy="92.1" r="32.1"/>
	<path id="XMLID_789_" class="st0" d="M269.1,372.3h-32V243.4h67.2c5.5,0,10-4.5,10-10s-4.5-10-10-10c-3.9,0-124.9,0-128.2,0
		c6.4-1.8,11-7.9,10.5-14.9c-0.5-8-7.4-14.1-15.4-13.6l-1.5,0.1c-4.5-14-8.1-25.2-12.7-39.6c-1.5-4.7-6.6-7.3-11.3-5.8
		c-4.7,1.5-7.3,6.6-5.8,11.3c9.4,29.4,5.5,17,11.3,35.2l-30.1,1.9l-28.5-37.5l22.7,17.8l-1.3-19.2c-0.8-11.9-11.1-21-23-20.2
		l-38.5,2.6c-11.9,0.8-21,11.1-20.2,23c7.1,107.3,6.7,104.2,6.7,104.2c0,0,0,0.1,0,0.1c0.6,6,4.4,11.7,11,14.5H22.1v-110
		c0-6.1-4.9-11-11-11s-11,4.9-11,11c0,14.5,0,199,0,211.2c0,6.1,4.9,11,11,11s11-4.9,11-11v-35h43.8l20-22.1H22.1v-22
		c11.2,0,73.7,0,81.7,0l15.1,6.2l-49.9,55c-6.5,7.1-5.9,18.1,1.2,24.6c7.1,6.5,18.2,5.9,24.6-1.2l66.6-73.4c3.8-4.2,5.3-10,4.1-15.5
		c-1.2-5.5-5.1-10.1-10.4-12.3l-68.1-28c8.4,1.7,62.1,12.9,73.3,15.2c3.3,0.7,6.3,1.9,9,3.6l-3.9-16.5c-1.8-7.9-8.9-13.4-17-13.4
		h-28.4l-0.5-7.8c-4,0.2-2.1,0.1-9.6,0.6c-8.4,0.5-15.8-4.5-18.9-11.8l-21.6-52.5l33.2,43.7c2.8,3.6,7,5.7,11.6,5.7
		c0.7,0-1.1,0.1,30.8-1.9c-2.2,1.8-3.7,4.6-3.7,7.7c0,5.5,4.5,10,10,10h65.6v128.9h-25.9l-12.8-54.5c-1.7,2.7-2.9,3.9-6.7,8.1
		l-21.6,23.8l7.6,32.6c2.2,9.4,11.6,15.2,20.9,13c2.5-0.6,4.8-1.7,6.7-3.2c0.7,0.2,1.4,0.3,2.2,0.3h81.5c5.5,0,10-4.5,10-10
		S274.6,372.3,269.1,372.3z"/>
	<circle id="XMLID_791_" class="st0" cx="381.6" cy="90.6" r="32.1"/>
	<path id="XMLID_793_" class="st0" d="M443.2,158.7c-6.1,0-11,4.9-11,11v110h-18.1l7.7-116.7c0.8-11.9-8.2-22.2-20.2-23l-38.5-2.6
		c-10.5-0.7-19.8,6.3-22.4,16.1l31.4-5.7l-42.7,19.9l-42.9-26.1c-6.8-4.2-15.8-2-20,4.8s-2,15.8,4.8,20l49.5,30.2
		c4.2,2.5,9.3,2.8,13.7,0.8l49.7-23.2c-47.4,39.6-44.7,37.6-48.1,39.2l-3.2,47.6l36.1,4l-73.4,5.6c-5.7,0.4-10.8,3.6-13.7,8.5
		s-3.2,10.9-0.9,16l40.6,90.4c4,8.8,14.3,12.7,23,8.7c8.8-3.9,12.7-14.3,8.7-23l-30.5-67.8c27.4-2.1,3.5-1.6,108.9-1.6v21.4h-71.6
		v-20.5l-20,5.4c9.6,21.4,13.7,30.4,20,44.6v-7.4h71.6v36.9c0,6.1,4.9,11,11,11s11-4.9,11-11c0-94,0-82.9,0-212.4
		C454.2,163.6,449.3,158.7,443.2,158.7z"/>
</g>
</svg>
