<?xml version="1.0" encoding="utf-8"?>
<!-- Generator: Adobe Illustrator 21.0.0, SVG Export Plug-In . SVG Version: 6.00 Build 0)  -->
<svg version="1.1" id="Layer_1" xmlns="http://www.w3.org/2000/svg" xmlns:xlink="http://www.w3.org/1999/xlink" x="0px" y="0px"
	 viewBox="0 0 512.5 512.5" style="enable-background:new 0 0 512.5 512.5;" xml:space="preserve">
<style type="text/css">
	.st0{fill:#FFFFFF;}
</style>
<g transform="translate(1 1)">
	<g>
		<g>
			<path class="st0" d="M255,357.7c99,0,179.2-80.2,179.2-179.2S354-0.7,255-0.7S75.8,79.5,75.8,178.5S156,357.7,255,357.7z
				 M115.2,260.7l88.1,31.5l-39.5,20.4C144,299.1,127.4,281.4,115.2,260.7z M92.9,178.5c0-5.5,0.3-10.9,0.8-16.3l239.6,62.9
				l-45.4,23.4L93,183.9C92.9,182.1,92.9,180.3,92.9,178.5z M154.2,113.9l148-90.4l-0.2-0.3c12.6,3.8,24.6,9.1,35.7,15.7
				l-133.9,86.7L154.2,113.9z M401.3,190l-46.1,23.8l0.1-0.5l-259.1-68c1.8-8.8,4.4-17.4,7.6-25.7L401.3,190z M405.6,238.7
				l-192.7,96.4c-11.1-3-21.7-7.1-31.8-12.2l234.4-120.9C413.6,214.7,410.2,227,405.6,238.7z M332,156l-35-8.3l93.8-57.9
				c5.3,8.2,10,16.8,13.8,25.9L332,156z M410.4,132c4.2,14,6.5,28.8,6.7,44.2l-60.5-14.3L410.4,132z M266.7,259.5l-42.6,22
				l-119.5-42.7l-0.1,0.1c-4.6-11.5-8-23.7-9.9-36.4L266.7,259.5z M255,340.6c-4.7,0-9.3-0.2-13.9-0.6l151.5-75.7
				C364,310.1,313.1,340.6,255,340.6z M380.7,76l-107.2,66.2l-46.7-11.1l126.3-81.8C363.3,57.1,372.6,66.1,380.7,76z M255,16.3
				c8,0,15.8,0.6,23.5,1.7l-147.9,90.3l-19.5-4.6C138.1,51.8,192.4,16.3,255,16.3z"/>
			<path class="st0" d="M505.9,494.2l-224.2-78l120.2-41.8c10.7,15.7,28.7,25.9,49.4,25.9c33.3,0,59.7-26.5,59.7-59.7
				s-26.5-59.7-59.7-59.7s-59.7,26.5-59.7,59.7c0,6.4,1,12.5,2.8,18.2l-138.9,48.3l-139.6-48.6c1.7-5.6,2.7-11.7,2.7-17.9
				c0-33.3-26.5-59.7-59.7-59.7C25.5,280.9-1,307.3-1,340.6s26.5,59.7,59.7,59.7c20.8,0,38.9-10.3,49.6-26.1l120.8,42L5,494.2
				c-4.3,1.7-6.8,6.8-5.1,11.1c0.9,3.4,4.3,6,7.7,6c0.9,0,1.7,0,3.4-0.9l244.5-85l244.5,85c0.9,0.9,1.7,0.9,2.6,0.9
				c3.4,0,6.8-2.6,8.5-6C512.7,501,510.1,495.9,505.9,494.2z M451.3,297.9c23.9,0,42.7,18.8,42.7,42.7c0,23.9-18.8,42.7-42.7,42.7
				c-23.9,0-42.7-18.8-42.7-42.7S427.4,297.9,451.3,297.9z M58.7,383.3c-23.9,0-42.7-18.8-42.7-42.7c0-23.9,18.8-42.7,42.7-42.7
				s42.7,18.8,42.7,42.7S82.6,383.3,58.7,383.3z"/>
			<path class="st0" d="M67.3,315c-18.8,0-34.1,15.4-34.1,34.1c0,5.1,3.4,8.5,8.5,8.5s8.5-3.4,8.5-8.5c0-9.4,7.7-17.1,17.1-17.1
				c5.1,0,8.5-3.4,8.5-8.5S72.4,315,67.3,315z"/>
			<path class="st0" d="M434.2,357.7c5.1,0,8.5-3.4,8.5-8.5c0-9.4,7.7-17.1,17.1-17.1c5.1,0,8.5-3.4,8.5-8.5s-3.4-8.5-8.5-8.5
				c-18.8,0-34.1,15.4-34.1,34.1C425.7,354.3,429.1,357.7,434.2,357.7z"/>
		</g>
	</g>
</g>
</svg>
