<?xml version="1.0" encoding="utf-8"?>
<!-- Generator: Adobe Illustrator 21.0.0, SVG Export Plug-In . SVG Version: 6.00 Build 0)  -->
<svg version="1.1" id="Layer_1" xmlns="http://www.w3.org/2000/svg" xmlns:xlink="http://www.w3.org/1999/xlink" x="0px" y="0px"
	 viewBox="0 0 512 512" style="enable-background:new 0 0 512 512;" xml:space="preserve">
<style type="text/css">
	.st0{fill:#FFFFFF;stroke:#000000;stroke-miterlimit:10;}
</style>
<g>
	<g>
		<path class="st0" d="M503.5,179.2c-94.1,0-170.7-76.6-170.7-170.7c0-4.7-3.8-8.5-8.5-8.5H187.7c-4.7,0-8.5,3.8-8.5,8.5
			c0,94.1-76.6,170.7-170.7,170.7c-4.7,0-8.5,3.8-8.5,8.5v315.7c0,4.7,3.8,8.5,8.5,8.5h494.9c4.7,0,8.5-3.8,8.5-8.5V187.7
			C512,183,508.2,179.2,503.5,179.2z M42.7,226.3c0-4.1,2.9-7.6,6.9-8.4c9.4-1.8,18.7-4.3,27.7-7.4c4.5-1.5,9.3,0.9,10.8,5.3
			c1.5,4.5-0.9,9.3-5.3,10.8c-7.5,2.6-15.3,4.8-23.1,6.5v23c0,4.7-3.8,8.5-8.5,8.5s-8.5-3.8-8.5-8.5L42.7,226.3L42.7,226.3z
			 M42.7,311.3c0-4.7,3.8-8.5,8.5-8.5s8.5,3.8,8.5,8.5v64.4c0,4.7-3.8,8.5-8.5,8.5s-8.5-3.8-8.5-8.5V311.3z M81.1,469.3H51.2
			c-4.7,0-8.5-3.8-8.5-8.5v-29.9c0-4.7,3.8-8.5,8.5-8.5s8.5,3.8,8.5,8.5v21.3h21.3c4.7,0,8.5,3.8,8.5,8.5
			C89.6,465.5,85.8,469.3,81.1,469.3z M182.1,469.3h-54.4c-4.7,0-8.5-3.8-8.5-8.5c0-4.7,3.8-8.5,8.5-8.5h54.4c4.7,0,8.5,3.8,8.5,8.5
			C190.7,465.5,186.8,469.3,182.1,469.3z M196.4,141.8c-15.1,21.2-33.4,39.5-54.6,54.6c-1.5,1.1-3.2,1.6-4.9,1.6
			c-2.7,0-5.3-1.2-7-3.6c-2.7-3.8-1.8-9.2,2-11.9c19.6-14,36.6-31,50.6-50.6c2.7-3.8,8.1-4.7,11.9-2
			C198.2,132.6,199.1,138,196.4,141.8z M283.2,469.3h-54.4c-4.7,0-8.5-3.8-8.5-8.5c0-4.7,3.8-8.5,8.5-8.5h54.4
			c4.7,0,8.5,3.8,8.5,8.5C291.7,465.5,287.9,469.3,283.2,469.3z M296.2,88.1c-0.9,0.3-1.8,0.5-2.8,0.5c-3.5,0-6.9-2.2-8.1-5.8
			c-2.6-7.5-4.8-15.3-6.5-23.1h-45.6c-1.8,7.8-4,15.5-6.5,23.1c-1.5,4.5-6.4,6.8-10.8,5.3c-4.5-1.5-6.8-6.4-5.3-10.8
			c3.1-9,5.6-18.3,7.4-27.7c0.8-4,4.3-6.9,8.4-6.9h59.4c4.1,0,7.6,2.9,8.4,6.9c1.8,9.4,4.3,18.7,7.4,27.7
			C303,81.7,300.6,86.6,296.2,88.1z M317.6,129.9c3.8-2.7,9.2-1.8,11.9,2c14,19.6,31,36.6,50.6,50.6c3.8,2.7,4.7,8.1,2,11.9
			c-1.7,2.3-4.3,3.6-7,3.6c-1.7,0-3.4-0.5-4.9-1.6c-21.2-15.1-39.5-33.4-54.6-54.6C312.9,137.9,313.8,132.6,317.6,129.9z
			 M384.3,469.3h-54.4c-4.7,0-8.5-3.8-8.5-8.5c0-4.7,3.8-8.5,8.5-8.5h54.4c4.7,0,8.5,3.8,8.5,8.5C392.8,465.5,389,469.3,384.3,469.3
			z M469.3,460.8c0,4.7-3.8,8.5-8.5,8.5h-29.9c-4.7,0-8.5-3.8-8.5-8.5c0-4.7,3.8-8.5,8.5-8.5h21.3v-21.3c0-4.7,3.8-8.5,8.5-8.5
			s8.5,3.8,8.5,8.5L469.3,460.8L469.3,460.8z M469.3,375.7c0,4.7-3.8,8.5-8.5,8.5s-8.5-3.8-8.5-8.5v-64.4c0-4.7,3.8-8.5,8.5-8.5
			s8.5,3.8,8.5,8.5V375.7z M469.3,256.2c0,4.7-3.8,8.5-8.5,8.5s-8.5-3.8-8.5-8.5v-23c-7.8-1.8-15.5-4-23.1-6.5
			c-4.5-1.5-6.8-6.4-5.3-10.8c1.5-4.5,6.3-6.9,10.8-5.3c9,3.1,18.4,5.6,27.7,7.4c4,0.8,6.9,4.3,6.9,8.4L469.3,256.2L469.3,256.2z"/>
	</g>
</g>
</svg>
