<?xml version="1.0" encoding="utf-8"?>
<!-- Generator: Adobe Illustrator 21.0.0, SVG Export Plug-In . SVG Version: 6.00 Build 0)  -->
<svg version="1.1" id="Capa_1" xmlns="http://www.w3.org/2000/svg" xmlns:xlink="http://www.w3.org/1999/xlink" x="0px" y="0px"
	 viewBox="0 0 612 612" style="enable-background:new 0 0 612 612;" xml:space="preserve">
<style type="text/css">
	.st0{fill:#FFFFFF;stroke:#000000;stroke-miterlimit:10;}
</style>
<g>
	<path class="st0" d="M612,167c0-0.3-1.5-0.5-1.5-0.7c0-0.4-0.8-0.8-0.9-1.2c-0.1-0.3-0.6-0.6-0.7-0.8c-0.1-0.3-0.4-0.6-0.6-0.9
		c-0.2-0.3-0.5-0.5-0.7-0.8c-0.2-0.2-0.4-0.5-0.6-0.7c-0.3-0.2-0.6-0.4-0.9-0.6c-0.2-0.2-0.4-0.3-0.6-0.5c0,0-0.1,0-0.1-0.1
		c-0.1,0-0.1-0.1-0.2-0.1L431.2,69l-20.4-11c-0.6-0.3-1.2-0.5-1.9-0.7L305,2.5c-2.2-1.2-4.8-1.1-7,0L3.8,160.6c0,0-0.1,0.1-0.1,0.1
		c0,0-0.1,0-0.1,0c-0.2,0.1-0.4,0.3-0.6,0.5c-0.3,0.2-0.6,0.4-0.8,0.6c-0.2,0.2-0.4,0.5-0.5,0.7c-0.2,0.3-0.5,0.5-0.6,0.8
		c-0.1,0.3-0.2,0.6-0.4,0.8c-0.1,0.3-0.3,0.6-0.4,0.9c-0.1,0.3,1.3,0.7,1.2,1.1c0,0.3,1.3,0.6,1.3,0.8c0,0,0,0,0,0.1c0,0,0,0,0,0
		v264.2H0c0,7.4,1.2,7.7,3.6,9.1l294.2,168.3c1.1,0.6,2.4,1.6,3.7,1.6c1.2,0,2.5,0,3.6-0.6l300.2-169.4c2.4-1.4,3.7-1.5,3.7-9h2.9
		V167C612,167.1,612,167.1,612,167C612,167,612,167,612,167z M17.5,179.9l89.2,52.7v97.1l25.2-7l20.6,34.4l33.6-8.4l31.8,44.1
		l1.2-96.5l73.4,42.1v252.4L17.5,432.3V179.9z M307.3,338.4l289.8-158.7v252.5L307.3,590.9V338.4z M301.6,325.5l-73.4-41.6
		l281.7-156.8l76.3,40.1L301.6,325.5z M301.6,17.5l89.7,47.2l-280,152.8l-88.6-50.3L301.6,17.5z"/>
</g>
</svg>
