<?xml version="1.0" encoding="utf-8"?>
<!-- Generator: Adobe Illustrator 21.0.0, SVG Export Plug-In . SVG Version: 6.00 Build 0)  -->
<svg version="1.1" id="Capa_1" xmlns="http://www.w3.org/2000/svg" xmlns:xlink="http://www.w3.org/1999/xlink" x="0px" y="0px"
	 viewBox="0 0 470 470" style="enable-background:new 0 0 470 470;" xml:space="preserve">
<style type="text/css">
	.st0{fill:#FFFFFF;}
</style>
<g>
	<path class="st0" d="M469,269.5L414.1,174l4.8,1c4.1,0.9,8-1.7,8.9-5.8c0.9-4.1-1.7-8-5.8-8.9l-87.9-18.9c-3.8-0.8-7.5,1.4-8.7,5
		l-27.6,85.5c-1.3,3.9,0.9,8.2,4.8,9.4c0.8,0.2,1.5,0.4,2.3,0.4c3.2,0,6.1-2,7.1-5.2l1.4-4.4l48.1,83.6h-99.7
		c-4.1,0-7.5,3.4-7.5,7.5s3.4,7.5,7.5,7.5h108.4l25,43.6l-24.7,42.6H261.9c-4.1,0-7.5,3.4-7.5,7.5s3.4,7.5,7.5,7.5h113.1
		c2.7,0,5.2-1.4,6.5-3.7L469,277C470.3,274.7,470.3,271.9,469,269.5z M404,359.5L319.8,213l17.9-55.4l56.7,12.2l59.5,103.5
		L404,359.5z"/>
	<path class="st0" d="M272.8,369l-60.3-66.7c-2.8-3.1-7.5-3.3-10.6-0.5c-3.1,2.8-3.3,7.5-0.5,10.6l3.2,3.5h-96.1l50.4-87.6
		c2.1-3.6,0.8-8.2-2.8-10.2c-3.6-2.1-8.2-0.8-10.2,2.8l-54.7,95.1H40.8l-24.7-42.6l55-95.6c2.1-3.6,0.8-8.2-2.8-10.2
		c-3.6-2.1-8.2-0.8-10.2,2.8L1,269.5c-1.3,2.3-1.3,5.2,0,7.5l87.6,151.4c1.3,2.3,3.8,3.7,6.5,3.7h109.5l-3.2,3.5
		c-2.8,3.1-2.5,7.8,0.5,10.6c1.4,1.3,3.2,1.9,5,1.9c2,0,4.1-0.8,5.6-2.5l60.3-66.7C275.3,376.2,275.3,371.8,272.8,369z M218.1,417.1
		H99.4l-49.9-86.2h45.9c0,0,122.7,0,122.7,0l39,43.1L218.1,417.1z"/>
	<path class="st0" d="M98.7,206.1c1,3.2,3.9,5.2,7.1,5.2c0.5,0,1.1-0.1,1.6-0.2l87.9-18.9c4.1-0.9,6.6-4.9,5.8-8.9s-4.9-6.6-8.9-5.8
		l-4.8,1l47.7-83l49.9,86.8c1.4,2.4,3.9,3.8,6.5,3.8c1.3,0,2.6-0.3,3.7-1c3.6-2.1,4.8-6.6,2.8-10.2l-54.3-94.4l25.2-43.8h49.1
		l54.6,95c2.1,3.6,6.6,4.8,10.2,2.8c3.6-2.1,4.8-6.6,2.8-10.2l-56.8-98.8c-1.3-2.3-3.8-3.8-6.5-3.8H147.7c-2.7,0-5.2,1.4-6.5,3.8
		l-54.5,94.7l-1.4-4.4c-1.3-3.9-5.5-6.1-9.4-4.8c-3.9,1.3-6.1,5.5-4.8,9.4L98.7,206.1z M152.1,36.8h99.4l-83.9,146l-56.7,12.2
		L93,139.6L152.1,36.8z"/>
</g>
</svg>
