<?xml version="1.0" encoding="utf-8"?>
<!-- Generator: Adobe Illustrator 21.0.0, SVG Export Plug-In . SVG Version: 6.00 Build 0)  -->
<svg version="1.1" id="Layer_1" xmlns="http://www.w3.org/2000/svg" xmlns:xlink="http://www.w3.org/1999/xlink" x="0px" y="0px"
	 viewBox="0 0 512 512" style="enable-background:new 0 0 512 512;" xml:space="preserve">
<style type="text/css">
	.st0{fill:#FFFFFF;stroke:#000000;stroke-miterlimit:10;}
</style>
<g>
	<g>
		<g>
			<path class="st0" d="M477.9,422.4h-25.6V268.8c0-3-0.1-6-0.3-9c-2.6-44.5-25.3-84.9-62.3-111c-22.3-15.7-47.7-25-73.9-27.5V89.6
				h8.5h17.1c4.7,0,8.5-3.8,8.5-8.5s-3.8-8.5-8.5-8.5h-8.5V38.4h8.5c4.7,0,8.5-3.8,8.5-8.5s-3.8-8.5-8.5-8.5h-17.1h-34.1h-17.1
				c-4.7,0-8.5,3.8-8.5,8.5s3.8,8.5,8.5,8.5h8.5v34.1h-8.5c-4.7,0-8.5,3.8-8.5,8.5s3.8,8.5,8.5,8.5h17.1h8.5v31
				c-13.7,0.2-27.5,2.3-41,6.2L168,153.3c-10.4,3-21.1,4.6-31.9,4.6h-6.2c-16.4,0-32.5-4.5-46.6-12.9c-7.4-4.4-13.8-11.4-19.7-21.4
				c-6.1-10.4-17.4-16.9-29.4-16.9C15.3,106.7,0,122,0,140.8v196.3c0,15.9,10.9,29.1,25.6,32.9v26.8c0,4.7,3.8,8.5,8.5,8.5
				s8.5-3.8,8.5-8.5V370c14.7-3.8,25.6-17.1,25.6-32.9V320c0-23.5,19.1-42.7,42.7-42.7h119.5c9.1,0,18.1,2.4,25.8,7
				c18.6,10.9,27.6,34,22.1,56.4l-20.4,81.7H34.1C15.3,422.4,0,437.7,0,456.5c0,18.8,15.3,34.1,34.1,34.1h443.7
				c18.8,0,34.1-15.3,34.1-34.1C512,437.7,496.7,422.4,477.9,422.4z M119.5,192h51.2c4.7,0,8.5,3.8,8.5,8.5s-3.8,8.5-8.5,8.5h-51.2
				c-4.7,0-8.5-3.8-8.5-8.5S114.8,192,119.5,192z M204.8,243.2h-85.3c-4.7,0-8.5-3.8-8.5-8.5s3.8-8.5,8.5-8.5h85.3
				c4.7,0,8.5,3.8,8.5,8.5S209.5,243.2,204.8,243.2z M298.7,38.4h17.1v34.1h-17.1V38.4z M341.3,388.3c-4.7,0-8.5-3.8-8.5-8.5
				s3.8-8.5,8.5-8.5s8.5,3.8,8.5,8.5S346,388.3,341.3,388.3z M375.5,388.3c-4.7,0-8.5-3.8-8.5-8.5s3.8-8.5,8.5-8.5s8.5,3.8,8.5,8.5
				S380.2,388.3,375.5,388.3z M341.3,277.3c-23.5,0-42.7-19.1-42.7-42.7c0-23.5,19.1-42.7,42.7-42.7c23.5,0,42.7,19.1,42.7,42.7
				C384,258.2,364.9,277.3,341.3,277.3z"/>
			<path class="st0" d="M341.3,209.1c-14.1,0-25.6,11.5-25.6,25.6s11.5,25.6,25.6,25.6s25.6-11.5,25.6-25.6S355.4,209.1,341.3,209.1
				z M341.3,243.2c-4.7,0-8.5-3.8-8.5-8.5s3.8-8.5,8.5-8.5s8.5,3.8,8.5,8.5S346,243.2,341.3,243.2z"/>
			<rect x="460.8" y="294.4" class="st0" width="51.2" height="17.1"/>
			<path class="st0" d="M486.4,243.2c-14.1,0-25.6,11.5-25.6,25.6v8.5H512v-8.5C512,254.7,500.5,243.2,486.4,243.2z"/>
			<path class="st0" d="M460.8,371.2c0,14.1,11.5,25.6,25.6,25.6s25.6-11.5,25.6-25.6v-8.5h-51.2V371.2z"/>
			<rect x="460.8" y="328.5" class="st0" width="51.2" height="17.1"/>
		</g>
	</g>
</g>
</svg>
