<svg id="Layer_1" data-name="Layer 1" xmlns="http://www.w3.org/2000/svg" viewBox="0 0 988.31 225.74"><defs><style>.cls-1{font-size:155.13px;font-family:Alegreya-Regular, Alegreya;}</style></defs><title>Untitled-1</title><text class="cls-1" transform="translate(187.99 180.29)">Shopperbird</text><path d="M5.71,12.38c.39,16.5,5.6,30.69,14.37,39.09a38.46,38.46,0,0,0,10.83,7.18c5.55,2.7,10.56,4.7,29.69,11.86,34,12.72,50.69,20.11,67.39,29.76,14.37,8.3,25.82,17.62,32.84,26.7a7.92,7.92,0,0,0,.88,1c.08-.09-5.32-11.44-7.67-16.16-7.71-15.41-13.53-24.42-19.79-30.65-3.76-3.74-6.56-5.62-18.65-12.53-10.4-6-32.36-18.09-45.76-25.3-1.88-1-5.86-3.16-8.84-4.78C53.41,34.46,44.8,29.82,38.2,26.3L31,22.43c-.89-.48-5.07-2.72-9.29-5l-9.42-5C7.58,9.92,5.82,9,5.73,9A30.31,30.31,0,0,0,5.71,12.38Z" transform="translate(-5.69 -9)"/><path d="M38.72,75a63.93,63.93,0,0,0,1.37,9.76,46.24,46.24,0,0,0,8.16,18.12,37.7,37.7,0,0,0,5.6,5.51A33.37,33.37,0,0,0,63,113.11c4,1.5,10.21,3.46,19,5.94,12.75,3.61,19.2,5.46,22.46,6.43,27.5,8.22,45.44,15.71,58.89,24.57a69.81,69.81,0,0,1,11.44,9.15c1.29,1.29,2.35,2.32,2.35,2.31s-4.07-7-6.13-10.46c-6.7-11.14-11.21-17.43-16.07-22.44a41.85,41.85,0,0,0-5.41-4.78,37.55,37.55,0,0,0-6.85-3.94c-3.3-1.64-4.69-2.3-11.75-5.54-7.86-3.6-31.29-14-41.12-18.16L85,94.14C80.93,92.37,40.21,74.9,38.88,74.36,38.76,74.31,38.72,74.48,38.72,75Z" transform="translate(-5.69 -9)"/><path d="M66.39,127A37.34,37.34,0,0,0,69,137.91c3.24,7.72,8.73,13,16.27,15.54,4.56,1.56,9.13,2.69,25,6.14,11.66,2.56,22,4.93,27.43,6.31,26.17,6.67,43.07,13.67,53.1,22,1.54,1.29,1.6,1.33,1.17.72-.26-.35-1.33-1.86-2.38-3.34-10.29-14.57-16.77-21.3-24.06-25-3.94-2-23.78-9.08-56.75-20.29-11.59-3.94-18.74-6.36-31.63-10.69l-10.64-3.59C66.33,125.67,66.32,125.87,66.39,127Z" transform="translate(-5.69 -9)"/></svg>